<svg xmlns="http://www.w3.org/2000/svg" xmlns:xlink="http://www.w3.org/1999/xlink" viewBox="0 0 117 137">
  <defs>
    <linearGradient id="b" x1="4.625%" x2="100%" y1="22.581%" y2="73.728%">
      <stop offset="0%" stop-color="#7F9FC2"/>
      <stop offset="100%" stop-color="#3A70AD"/>
    </linearGradient>
    <linearGradient id="d" x1="30.055%" x2="69.945%" y1="0%" y2="100%">
      <stop offset="0%" stop-color="#EF378B"/>
      <stop offset="47.687%" stop-color="#E6294D"/>
      <stop offset="100%" stop-color="#EE6960"/>
    </linearGradient>
    <path id="a" d="M102 0v74.476a3.6 3.6 0 01-3.608 3.6L63 78l-9.089 12.497a3.6 3.6 0 01-5.822 0L39 78l-35.392.076A3.6 3.6 0 010 74.476V0h102z"/>
    <path id="e" d="M112.335 3.364L116 26.138c0 3.237-2.885 5.862-6.444 5.862-1.277 0-2.489-.566-3.635-1.697a4 4 0 00-5.62 0C99.156 31.434 97.944 32 96.668 32c-1.277 0-2.489-.566-3.635-1.697a4 4 0 00-5.62 0C86.267 31.434 85.055 32 83.779 32c-1.277 0-2.489-.566-3.635-1.697a4 4 0 00-5.62 0C73.378 31.434 72.167 32 70.89 32c-1.277 0-2.488-.566-3.635-1.697a4 4 0 00-5.619 0C60.488 31.434 59.277 32 58 32c-1.277 0-2.488-.566-3.635-1.697a4 4 0 00-5.619 0C47.6 31.434 46.388 32 45.111 32c-1.277 0-2.488-.566-3.635-1.697a4 4 0 00-5.619 0C34.711 31.434 33.5 32 32.222 32c-1.276 0-2.488-.566-3.635-1.697a4 4 0 00-5.619 0C21.822 31.434 20.61 32 19.333 32c-1.272 0-2.491-.566-3.658-1.697a4 4 0 00-5.569-.002C8.938 31.434 7.717 32 6.444 32 2.96 32 .121 29.484.004 26.34L0 26.137 3.665 3.364A4 4 0 017.615 0h100.77a4 4 0 013.95 3.364z"/>
  </defs>
  <g fill="none" fill-rule="evenodd">
    <g transform="translate(7.678 45)">
      <mask id="c" fill="#fff">
        <use xlink:href="#a"/>
      </mask>
      <use fill="#003F86" xlink:href="#a"/>
      <path fill="url(#b)" d="M96 10v62H6V10z" mask="url(#c)"/>
      <path fill="#003273" d="M105.322-16.617L109 6.955c0 3.338-2.885 6.045-6.444 6.045-1.266 0-2.468-.573-3.606-1.72a4 4 0 00-5.678 0c-1.138 1.147-2.34 1.72-3.605 1.72-1.266 0-2.468-.573-3.605-1.72a4 4 0 00-5.68 0C79.246 12.427 78.044 13 76.779 13c-1.266 0-2.468-.573-3.605-1.72a4 4 0 00-5.679 0c-1.138 1.147-2.34 1.72-3.605 1.72-1.266 0-2.467-.573-3.605-1.72a4 4 0 00-5.679 0C53.467 12.427 52.265 13 51 13c-1.266 0-2.467-.573-3.605-1.72a4 4 0 00-5.679 0c-1.138 1.147-2.34 1.72-3.605 1.72-1.265 0-2.467-.573-3.605-1.72a4 4 0 00-5.679 0C27.69 12.427 26.487 13 25.222 13c-1.265 0-2.467-.573-3.605-1.72a4 4 0 00-5.679 0c-1.137 1.147-2.34 1.72-3.605 1.72-1.26 0-2.47-.573-3.627-1.72a4 4 0 00-5.63-.002C1.916 12.426.706 13-.556 13c-3.485 0-6.323-2.595-6.44-5.838L-7 6.955l3.678-23.572A4 4 0 01.631-20h100.738a4 4 0 013.953 3.383z" mask="url(#c)"/>
    </g>
    <g transform="translate(44.678 65)">
      <rect width="28" height="44" fill="#FFF" rx="2"/>
      <path fill="#FFF" fill-rule="nonzero" d="M16 44v8h-4v-8z"/>
      <path fill="url(#d)" d="M0 0h24v38H0z" transform="translate(2 2)"/>
      <path fill="#FFF" d="M13.915 11.5H14l.132.002.159.006.12.007.13.01.14.014c.313.034.69.096 1.1.208a6.37 6.37 0 012.146 1.032 5.919 5.919 0 011.825 2.26c.496 1.058.748 2.33.748 3.781 0 1.323-.33 2.748-.978 4.236-.51 1.168-1.216 2.379-2.102 3.6l-.149.202-.11.147-.117.155-.192.248-.138.175-.146.18-.153.189-.162.193-.083.099-.173.201a27.52 27.52 0 01-.18.206l-.186.21-.097.106-.197.214-.258.273-.224.23-.219.22-.208.201L14 30.5l-.431-.398-.105-.1-.19-.188-.164-.165-.189-.195-.258-.273-.182-.197-.2-.221-.141-.16-.148-.17-.153-.178-.239-.285-.164-.2a27.3 27.3 0 01-.083-.103l-.169-.212c-.085-.108-.17-.22-.257-.332l-.173-.23-.174-.237c-.886-1.221-1.593-2.432-2.102-3.6-.649-1.488-.978-2.913-.978-4.236 0-1.45.252-2.723.748-3.781a5.919 5.919 0 011.825-2.26 6.37 6.37 0 012.146-1.032 7.12 7.12 0 011.1-.208l.14-.014.13-.01.12-.007.109-.005.097-.002zm.122 1.208h-.116l-.095.004-.106.005-.119.008-.063.005-.135.014a6.01 6.01 0 00-.894.173 5.25 5.25 0 00-1.77.847C9.353 14.799 8.65 16.5 8.65 18.82c0 1.145.293 2.397.87 3.722.471 1.084 1.132 2.215 1.963 3.363.198.274.396.535.591.783l.166.209.164.201.162.195.158.187.154.178.15.171.144.163.207.227.192.207.176.186.254.26.146-.149.164-.17.182-.194.13-.14.137-.15.215-.24.15-.17.153-.18.158-.186.08-.096.163-.199.165-.205.084-.105.168-.216c.14-.182.282-.371.423-.567.831-1.148 1.492-2.28 1.963-3.363.577-1.325.87-2.577.87-3.722 0-2.32-.704-4.021-2.09-5.056a5.25 5.25 0 00-1.77-.847 5.986 5.986 0 00-.415-.098l-.156-.029-.148-.023a5.933 5.933 0 00-.206-.026l-.127-.013-.117-.009-.106-.006-.139-.004h-.04zm-3.73 4.444l1.106.336c-.093.291-.142.6-.142.915 0 .766.284 1.486.8 2.027.515.542 1.2.84 1.929.84.729 0 1.414-.298 1.93-.84.336-.354.574-.784.699-1.254l.023-.094 1.105.336a4.198 4.198 0 01-.184.572 4.078 4.078 0 01-.83 1.295 3.86 3.86 0 01-1.233.873c-.479.212-.987.32-1.51.32a3.695 3.695 0 01-1.51-.32 3.86 3.86 0 01-1.233-.873 4.078 4.078 0 01-.83-1.295 4.228 4.228 0 01-.305-1.587c0-.386.05-.764.15-1.13l.036-.12zm6.197-1.794c.434 0 .786.37.786.826 0 .457-.352.827-.786.827-.435 0-.787-.37-.787-.827 0-.456.352-.826.787-.826zM14 14.328v1.208l-.087.002a2.63 2.63 0 00-1.642.647l-.069.061-.757-.909a3.836 3.836 0 011.045-.689 3.692 3.692 0 011.39-.318l.12-.002z"/>
    </g>
    <g transform="translate(.678 20)">
      <mask id="f" fill="#fff">
        <use xlink:href="#e"/>
      </mask>
      <use fill="#003F86" xlink:href="#e"/>
      <path fill="#00326F" d="M58-17c11.046 0 20 9.402 20 21s-8.954 21-20 21-20-9.402-20-21 8.954-21 20-21z" mask="url(#f)"/>
    </g>
    <path fill="#003F86" d="M58.678 0c11.046 0 20 8.954 20 20s-8.954 20-20 20c-11.045 0-20-8.954-20-20s8.955-20 20-20z"/>
    <g stroke="#FFF" stroke-linecap="round" stroke-width="2">
      <path d="M58.678 20.09c0-2.863-1.555-5.09-4.666-5.09-3.111 0-5.334 2.227-5.334 5.41 0 4.454 4.334 8.59 10 8.59M58.678 20.09c0-2.863 1.556-5.09 4.667-5.09 3.111 0 5.333 2.227 5.333 5.41 0 4.454-4.333 8.59-10 8.59M50.678 30.5s8-2.621 8-10.5M66.678 30.5s-8-2.621-8-10.5"/>
    </g>
  </g>
</svg>
