<svg xmlns="http://www.w3.org/2000/svg" viewBox="0 0 681 708">
  <g>
    <path d="M531,65a10.65,10.65,0,0,1,.11-21.29h.74a19.76,19.76,0,0,1,19.71-18.15,18,18,0,0,1,1.82.09A19.77,19.77,0,0,1,572.52,9h1A19.76,19.76,0,0,1,593,25.65c.6-.06,1.21-.09,1.82-.09a19.76,19.76,0,0,1,19.71,18.15H615A10.65,10.65,0,0,1,615.4,65H531Z" fill="#fff" fill-rule="evenodd"/>
    <path d="M19.68,117v-.09A21,21,0,0,1,20,75.07a25,25,0,1,1,49.37-8c.75-.07,1.52-.11,2.3-.11A25,25,0,0,1,96.6,90h.58a13.5,13.5,0,0,1,.5,27h-78Z" fill="#fff" fill-rule="evenodd"/>
    <circle cx="340.18" cy="367.5" r="339.5" fill="#fff"/>
    <path d="M173.33,582.42a363.23,363.23,0,0,1,71.46,27L365.36,669.3l32.76,32.75q6.76-1.15,13.44-2.59l-79.34-79.34,49.3-49.29,79.76,79.75-48.64,48.64a336.38,336.38,0,0,0,34.78-9.52l25.41-25.42,10.93,10.93c3.52-1.65,7-3.34,10.48-5.1L481.16,657l22-22,19.07,19.07c2.74-1.75,5.47-3.53,8.16-5.36L509.65,628l19.72-19.72L553.05,632q4.19-3.39,8.29-6.89l-26.26-26.26,49.3-49.29,24.93,24.93q3.29-4.28,6.44-8.65L591.93,542l49.29-49.3L651.54,503q1.9-4.38,3.7-8.81L648,487l15.4-15.4q4.77-14.83,8.19-30.23l-35.14,35.15L556.7,396.72l50.82-50.82,68.87,68.87c.57-4.14,1.1-8.3,1.53-12.49l-62.85-62.85,7.33-7.33,54.66-6.92q-1-7.85-2.32-15.58L638.39,314l24.27-24.27L673,300.08a334.15,334.15,0,0,0-9-34.83l-6.54,6.54L577.69,192l31.56-31.55q-4.79-6.21-9.85-12.19l-32.18,32.19-79.76-79.76L513,75.22q-8-4.73-16.23-9L475.9,87,428.52,39.63q-10.5-2.82-21.25-5l62.92,62.92-19.72,19.72L370.72,37.52l7.4-7.4q-11.88-1.32-24-1.81L330.65,51.8l-22.3-22.3q-6.83.63-13.56,1.53l29.39,29.39-50.82,50.81-59.1-59.1q-4.81,1.93-9.57,4L266.57,118l-49.29,49.3-75.4-75.4q-4.69,3.39-9.26,6.92l76,76-49.29,49.29L82.11,146.92q-3,3.5-5.88,7.07l76.65,76.65-49.3,49.3L37.41,213.76c-1.71,3.35-3.34,6.75-4.94,10.16L95,286.41,54,327.34l-3-3-8.33,8.39L7.84,297.88q-1.12,5.36-2.07,10.77l32.05,32.06L.85,378q.33,11,1.37,21.86L49.78,351.9l3,3,.36-.37,35,35L2.31,400.84Q3,407.77,4,414.62l94.44-12.81,32.12,32.12-.36.36L141.87,446l.36-.36,79.4,79.4-.36.36,0,0-5.3,5.34-.93,1C206.25,541,201,553.6,199.7,568.42L199,576.5q-16.32-5.75-32.4-9.68L134.46,559,6.72,431.45q1.86,9.74,4.25,19.27l105.17,105L47,538.71q4.45,7.6,9.27,14.94l114.38,28.09Zm148.42,27.22L242,529.89l1.58-1.59,47.71-47.71L371,560.35Zm13-197.54-19.72,19.72L261.9,378.64,296.72,374Zm-23.36-37.55,73.62-9.81-41.72,41.72Zm33.17,49,79.76,79.76L404.64,523l-79.76-79.76Zm8.93-7.32,49.3-49.29,79.76,79.75L433.29,496Zm55.77-55.77,1.05-1.05,85-11.51,43,43-49.3,49.3Zm18.33-16.81,31.86-31.86,25.06,25.07Zm38.85-38.73,50.81-50.81,66.84,66.84-88.58,13Zm-11.57-9.95-79.76-79.76L426,164.36l79.76,79.75Zm-6.79,5.71L401.5,347.27l-4.71.63-77.72-77.72,49.29-49.29ZM383.18,349.4l-86.82,11.77-34.64-34.64,49.3-49.3Zm-98.85,13.12-67.54,9.81,38.67-38.68Zm-27.39,19.29-3.74,3.74L309,441.35l-22,22-76-76ZM377.22,552l-79.75-79.76,22-22L399.22,530Zm90.24,90.23L387.7,562.49l22-22,79.76,79.76Zm29.56-29-79.76-79.76L437,513.75l79.76,79.76Zm26.51-26L443.77,507.5l49.3-49.29L572.82,538ZM628.6,482.19l-49.3,49.3-79.76-79.76,49.3-49.3Zm-83.17-97.73-38-38,87.28-11.31Zm27.18-183,79.76,79.76L613.52,320l-15.86,2-72.83-72.84Zm-92.37-94.34L550.12,177l-20.22-6.58-1.54-.51c-23.53-8-47.39-23.12-67.84-43.07ZM453.58,134.6c23.49,23,51.05,40.22,78.18,48.91l24.56,7.86-44.75,44.75-79.76-79.76ZM362.23,44.93,442,124.69l-21.23,21.24L341,66.17Zm-27.57,26,79.75,79.76L363.6,201.47l-79.76-79.76Zm-57.61,58.67,79.76,79.76-49.3,49.3-79.75-79.76Zm-55.77,56.85L301,266.18l-49.3,49.3L172,235.72Zm-56.85,54.7,79.76,79.76-49.29,49.3-79.76-79.76ZM98.34,386.77l-40-40,49.29-49.3L185.13,375ZM137.1,425.6l-25.83-25.82L172,390.72Zm12.5,11.9,49.3-49.3L278.66,468l-40.93,40.93h0l-8.35,8.38Zm65.14,140.39.14-1.42c1.4-12.77,6.23-23.54,14.13-31.48l5.65-5.67,79,79-.36.36,11.66,11.66.36-.36,15,15-94.66-46.86-2.79-1.37q-14.31-7-28.6-12.6Z" fill="#f2f5f9"/>
    <path d="M615.42,122v-.06A13,13,0,0,1,615.63,96a15,15,0,0,1-.21-2.52,15.46,15.46,0,0,1,30.73-2.41c.46,0,.94-.07,1.42-.07A15.48,15.48,0,0,1,663,105.28h.35a8.36,8.36,0,0,1,.31,16.72H615.42Z" fill="#fff" fill-rule="evenodd"/>
    <path d="M170.83,37v0a10.95,10.95,0,0,0-.17-21.8,13.48,13.48,0,0,0,.17-2.12,12.95,12.95,0,0,0-25.75-2,11.71,11.71,0,0,0-1.19-.06,13,13,0,0,0-12.92,12h-.3A7,7,0,0,0,130.41,37h40.42Z" fill="#fff" fill-rule="evenodd"/>
  </g>
</svg>
