<svg xmlns="http://www.w3.org/2000/svg" viewBox="0 0 187 346">
  <g fill="#FFF" fill-rule="nonzero">
    <path d="M37.718 133.517l5.412-20.504h.088l5.192 20.504h6.732l9.812-31.24h-7.832l-5.28 19.14h-.132l-4.752-19.14h-7.744l-4.796 19.184h-.132l-5.236-19.184h-7.876l9.812 31.24h6.732zm37.544.396c4.884 0 7.876-1.628 9.68-3.872l-3.96-4.048c-1.452 1.628-3.256 2.288-5.016 2.332-2.64 0-4.708-1.276-5.148-3.74H85.47c.044-.44.132-1.452.132-2.068 0-6.38-4.444-10.912-10.516-10.912-6.512 0-11.088 4.62-11.088 11.132 0 6.688 4.752 11.176 11.264 11.176zm3.652-13.42h-8.052c.44-2.156 2.024-3.432 4.136-3.432 2.068 0 3.476 1.32 3.916 3.432zm17.39 13.024v-9.68c0-2.816 1.673-4.884 4.929-4.884.352 0 .968.044 1.628.088v-7.436h-.264c-2.376 0-4.62 1.188-6.204 3.388h-.088v-2.992H89.44v21.516h6.864zm29.635.396c2.684 0 4.708-.924 6.116-2.684h.088v2.288h6.556v-32.384h-6.908v13.156h-.044c-1.54-1.76-3.74-2.684-6.16-2.684-5.544 0-9.812 4.576-9.812 11.176 0 6.644 4.224 11.132 10.164 11.132zm1.408-6.072c-2.684 0-4.62-2.024-4.62-5.06 0-3.08 2.024-5.104 4.62-5.104 2.772 0 4.708 2.156 4.708 5.104 0 3.08-2.024 5.06-4.708 5.06zm23.64 6.072c2.375 0 4.531-.924 6.115-2.86l.088.044v2.42h6.908v-21.516h-6.908v10.648c0 3.476-1.716 5.192-3.784 5.192-2.332 0-3.3-1.32-3.3-4.796v-11.044h-6.864v12.76c0 6.776 3.212 9.152 7.744 9.152zm-79.993 42c5.94 0 10.164-4.488 10.164-11.132 0-6.6-4.224-11.176-9.812-11.176-2.42 0-4.576.88-6.116 2.684h-.088v-13.156h-6.864v32.384h6.512v-2.288h.088c1.408 1.804 3.476 2.684 6.116 2.684zm-1.364-6.072c-2.728 0-4.796-1.98-4.796-5.06 0-2.948 1.98-5.104 4.752-5.104 2.64 0 4.62 2.024 4.62 5.104 0 3.036-1.936 5.06-4.576 5.06zm19.063-18.524c2.376 0 4.136-1.716 4.136-3.96 0-2.156-1.76-3.872-4.136-3.872-2.376 0-4.092 1.76-4.092 3.872 0 2.244 1.716 3.96 4.092 3.96zm3.432 24.2v-21.516H85.26v21.516h6.864zm12.243.396c5.896 0 8.756-2.904 8.756-6.908 0-4.224-2.596-5.456-7.348-7.084-2.156-.748-2.948-1.232-2.948-1.892 0-.836.924-1.188 1.716-1.188 1.452 0 3.3.748 4.796 2.244l3.256-4.796c-2.508-1.848-4.884-2.684-8.14-2.684-4.488 0-8.052 2.508-8.052 6.864 0 4.136 3.168 5.896 6.776 6.996 2.684.836 3.344 1.276 3.344 1.98 0 .792-.704 1.276-2.068 1.276-1.98 0-3.828-.792-5.632-2.42l-3.212 4.444c2.376 2.112 5.368 3.168 8.756 3.168zm19.46 0c2.991 0 4.531-.616 6.027-1.452l-1.716-5.06a5.488 5.488 0 01-2.112.484c-1.32 0-1.628-1.012-1.628-2.42v-7.92h5.192v-5.544H124.4v-7.612l-6.908.704v6.908h-2.42v5.544h2.42v9.196c0 4.884 2.64 7.172 6.336 7.172zM93.572 227.413c3.124 0 5.544-.704 7.568-2.2h.132l1.408 1.804h7.524l-4.224-5.632v-.176c1.936-2.992 2.684-6.556 2.684-9.548l-6.248.132c0 1.188-.264 2.464-.704 3.652l-.132.044-8.756-11.616c.176-1.1 1.012-2.772 3.256-2.772 2.112.044 3.344 1.496 4.048 3.08l5.544-2.024c-1.496-3.256-4.268-6.82-10.252-6.82-5.588 0-9.504 3.608-9.944 8.888l3.212 4.224v.088c-3.036 1.892-5.5 4.752-5.5 9.152 0 5.852 4.576 9.724 10.384 9.724zm.748-6.116c-2.552 0-4.4-1.54-4.4-4.048 0-1.496.704-2.992 2.376-3.96l5.324 7.04v.132a6.802 6.802 0 01-3.3.836zM27.093 42v-4.172h-8.82l-.056-.084 8.848-12.096V22.12H12.533v4.172h8.26l.056.056-8.624 12.012V42h14.868zm9.399.252c3.108 0 5.012-1.036 6.16-2.464l-2.52-2.576a4.32 4.32 0 01-3.192 1.484c-1.68 0-2.996-.812-3.276-2.38h9.324c.028-.28.084-.924.084-1.316 0-4.06-2.828-6.944-6.692-6.944-4.144 0-7.056 2.94-7.056 7.084 0 4.256 3.024 7.112 7.168 7.112zm2.324-8.54h-5.124c.28-1.372 1.288-2.184 2.632-2.184 1.316 0 2.212.84 2.492 2.184zm9.37-7.112c1.513 0 2.633-1.092 2.633-2.52 0-1.372-1.12-2.464-2.632-2.464s-2.604 1.12-2.604 2.464c0 1.428 1.092 2.52 2.604 2.52zM50.372 42V28.308h-4.368V42h4.368zm9.958 5.796c5.544 0 7.392-3.136 7.392-7.588v-11.9h-4.396v1.344h-.056c-1.036-1.064-2.436-1.596-3.92-1.596-3.444 0-6.076 2.884-6.076 6.944 0 3.892 2.632 6.748 6.328 6.748 1.596 0 2.856-.56 3.78-1.512l.056.028v1.26c0 1.428-1.204 2.604-3.584 2.604-1.512 0-3.024-.532-4.172-1.204l-.98 3.556c1.68.924 3.416 1.316 5.628 1.316zm.308-9.94c-1.652 0-2.912-1.176-2.912-2.94s1.232-2.968 2.912-2.968c1.624 0 2.884 1.204 2.884 2.94s-1.232 2.968-2.884 2.968zm23.474 4.396c1.708 0 2.996-.588 3.892-1.708h.056V42h4.172V21.392h-4.396v8.372h-.028c-.98-1.12-2.38-1.708-3.92-1.708-3.528 0-6.244 2.912-6.244 7.112 0 4.228 2.688 7.084 6.468 7.084zm.896-3.864c-1.708 0-2.94-1.288-2.94-3.22 0-1.96 1.288-3.248 2.94-3.248 1.764 0 2.996 1.372 2.996 3.248 0 1.96-1.288 3.22-2.996 3.22zm17.182 3.864c3.108 0 5.012-1.036 6.16-2.464l-2.52-2.576a4.32 4.32 0 01-3.192 1.484c-1.68 0-2.996-.812-3.276-2.38h9.324c.028-.28.084-.924.084-1.316 0-4.06-2.828-6.944-6.692-6.944-4.144 0-7.056 2.94-7.056 7.084 0 4.256 3.024 7.112 7.168 7.112zm2.324-8.54H99.39c.28-1.372 1.288-2.184 2.632-2.184 1.316 0 2.212.84 2.492 2.184zm9.371-7.112c1.512 0 2.632-1.092 2.632-2.52 0-1.372-1.12-2.464-2.632-2.464s-2.604 1.12-2.604 2.464c0 1.428 1.092 2.52 2.604 2.52zm2.184 15.4V28.308H111.7V42h4.368zm7.999 0v-6.888c0-2.128 1.008-3.164 2.52-3.164 1.428 0 2.184.644 2.184 2.912V42h4.368v-8.204c0-4.34-2.072-5.74-4.9-5.74-1.596 0-3.052.616-4.116 1.848h-.056v-1.596h-4.368V42h4.368zm18.89.252c3.108 0 5.012-1.036 6.16-2.464l-2.52-2.576a4.32 4.32 0 01-3.192 1.484c-1.68 0-2.996-.812-3.276-2.38h9.324c.028-.28.084-.924.084-1.316 0-4.06-2.828-6.944-6.692-6.944-4.144 0-7.056 2.94-7.056 7.084 0 4.256 3.024 7.112 7.168 7.112zm2.324-8.54h-5.124c.28-1.372 1.288-2.184 2.632-2.184 1.316 0 2.212.84 2.492 2.184zM156.696 42v-6.86c0-2.156 1.008-3.192 2.38-3.192 1.456 0 1.988 1.288 1.988 3.08V42h4.368v-6.86c0-2.156 1.036-3.192 2.296-3.192 1.512 0 1.988 1.288 1.988 3.08V42h4.368v-7.98c0-4.312-1.96-5.964-4.844-5.964-1.904 0-3.528.672-4.62 2.044h-.056c-.812-1.428-2.24-2.044-3.976-2.044-1.428 0-2.8.644-3.864 1.876h-.028v-1.624h-4.368V42h4.368zM60.885 76l7.308-19.88H63.18l-4.312 13.188h-.056L54.5 56.12h-5.068L56.769 76h4.116zM72.55 60.6c1.512 0 2.632-1.092 2.632-2.52 0-1.372-1.12-2.464-2.632-2.464s-2.604 1.12-2.604 2.464c0 1.428 1.092 2.52 2.604 2.52zM74.735 76V62.308h-4.368V76h4.368zm10.127.252c3.108 0 5.012-1.036 6.16-2.464l-2.52-2.576a4.32 4.32 0 01-3.192 1.484c-1.68 0-2.996-.812-3.276-2.38h9.324c.028-.28.084-.924.084-1.316 0-4.06-2.828-6.944-6.692-6.944-4.144 0-7.056 2.94-7.056 7.084 0 4.256 3.024 7.112 7.168 7.112zm2.324-8.54h-5.124c.28-1.372 1.288-2.184 2.632-2.184 1.316 0 2.212.84 2.492 2.184zM98.601 76v-6.16c0-1.792 1.064-3.108 3.136-3.108.224 0 .616.028 1.036.056v-4.732h-.168c-1.512 0-2.94.756-3.948 2.156H98.6v-1.904h-4.368V76H98.6zm10.994.252c1.904 0 2.884-.392 3.836-.924l-1.092-3.22a3.492 3.492 0 01-1.344.308c-.84 0-1.036-.644-1.036-1.54v-5.04h3.304v-3.528h-3.304v-4.844l-4.396.448v4.396h-1.54v3.528h1.54v5.852c0 3.108 1.68 4.564 4.032 4.564zm12.255 0c3.108 0 5.012-1.036 6.16-2.464l-2.52-2.576a4.32 4.32 0 01-3.192 1.484c-1.68 0-2.996-.812-3.276-2.38h9.324c.028-.28.084-.924.084-1.316 0-4.06-2.828-6.944-6.692-6.944-4.144 0-7.056 2.94-7.056 7.084 0 4.256 3.024 7.112 7.168 7.112zm2.324-8.54h-5.124c.28-1.372 1.288-2.184 2.632-2.184 1.316 0 2.212.84 2.492 2.184zM135.729 76V55.392h-4.368V76h4.368zM35.254 278.517l5.412-20.504h.088l5.192 20.504h6.732l9.812-31.24h-7.832l-5.28 19.14h-.132l-4.752-19.14H36.75l-4.796 19.184h-.132l-5.236-19.184H18.71l9.812 31.24h6.732zm36.312.396c2.596 0 4.532-.88 5.94-2.684l.088.044v2.244h6.556v-21.516h-6.908v2.244l-.088.044c-1.496-1.76-3.652-2.684-5.94-2.684-5.544 0-9.812 4.576-9.812 11.176 0 6.644 4.268 11.132 10.164 11.132zm1.452-6.072c-2.728 0-4.62-2.024-4.62-5.06 0-3.08 1.98-5.104 4.62-5.104 2.552 0 4.532 2.156 4.532 5.104 0 3.08-2.068 5.06-4.532 5.06zm23.023 6.072c5.896 0 8.756-2.904 8.756-6.908 0-4.224-2.596-5.456-7.348-7.084-2.156-.748-2.948-1.232-2.948-1.892 0-.836.924-1.188 1.716-1.188 1.452 0 3.3.748 4.796 2.244l3.256-4.796c-2.508-1.848-4.884-2.684-8.14-2.684-4.488 0-8.052 2.508-8.052 6.864 0 4.136 3.168 5.896 6.776 6.996 2.684.836 3.344 1.276 3.344 1.98 0 .792-.704 1.276-2.068 1.276-1.98 0-3.828-.792-5.632-2.42l-3.212 4.444c2.376 2.112 5.368 3.168 8.756 3.168zm32.362 0c2.684 0 4.708-.924 6.116-2.684h.088v2.288h6.556v-32.384h-6.908v13.156h-.044c-1.54-1.76-3.74-2.684-6.16-2.684-5.544 0-9.812 4.576-9.812 11.176 0 6.644 4.224 11.132 10.164 11.132zm1.408-6.072c-2.684 0-4.62-2.024-4.62-5.06 0-3.08 2.024-5.104 4.62-5.104 2.772 0 4.708 2.156 4.708 5.104 0 3.08-2.024 5.06-4.708 5.06zm23.64 6.072c2.375 0 4.531-.924 6.115-2.86l.088.044v2.42h6.908v-21.516h-6.908v10.648c0 3.476-1.716 5.192-3.784 5.192-2.332 0-3.3-1.32-3.3-4.796v-11.044h-6.864v12.76c0 6.776 3.212 9.152 7.744 9.152zM34.22 320.517v-6.072l2.155-2.376 4.796 8.448h7.612l-7.48-12.936 7.26-8.58H40.6l-6.292 7.744h-.088v-18.612h-6.776v32.384h6.776zm24.915.396c2.596 0 4.532-.88 5.94-2.684l.088.044v2.244h6.556v-21.516h-6.908v2.244l-.088.044c-1.496-1.76-3.652-2.684-5.94-2.684-5.544 0-9.812 4.576-9.812 11.176 0 6.644 4.268 11.132 10.164 11.132zm1.452-6.072c-2.728 0-4.62-2.024-4.62-5.06 0-3.08 1.98-5.104 4.62-5.104 2.552 0 4.532 2.156 4.532 5.104 0 3.08-2.068 5.06-4.532 5.06zm22.803 5.676v-10.824c0-3.344 1.584-4.972 3.96-4.972 2.244 0 3.432 1.012 3.432 4.576v11.22h6.864v-12.892c0-6.82-3.256-9.02-7.7-9.02-2.508 0-4.796.968-6.468 2.904h-.088v-2.508h-6.864v21.516h6.864zm25.795 0v-10.824c0-3.344 1.584-4.972 3.96-4.972 2.244 0 3.432 1.012 3.432 4.576v11.22h6.864v-12.892c0-6.82-3.256-9.02-7.7-9.02-2.508 0-4.796.968-6.468 2.904h-.088v-2.508h-6.864v21.516h6.864zm26.015.396c5.896 0 8.756-2.904 8.756-6.908 0-4.224-2.596-5.456-7.348-7.084-2.156-.748-2.948-1.232-2.948-1.892 0-.836.924-1.188 1.716-1.188 1.452 0 3.3.748 4.796 2.244l3.256-4.796c-2.508-1.848-4.884-2.684-8.14-2.684-4.488 0-8.052 2.508-8.052 6.864 0 4.136 3.168 5.896 6.776 6.996 2.684.836 3.344 1.276 3.344 1.98 0 .792-.704 1.276-2.068 1.276-1.98 0-3.828-.792-5.632-2.42l-3.212 4.444c2.376 2.112 5.368 3.168 8.756 3.168zm19.46 0c2.991 0 4.531-.616 6.027-1.452l-1.716-5.06a5.488 5.488 0 01-2.112.484c-1.32 0-1.628-1.012-1.628-2.42v-7.92h5.192v-5.544h-5.192v-7.612l-6.908.704v6.908h-2.42v5.544h2.42v9.196c0 4.884 2.64 7.172 6.336 7.172z"/>
  </g>
</svg>
