<svg xmlns="http://www.w3.org/2000/svg" viewBox="0 0 681 708">
  <g fill="none" fill-rule="evenodd" transform="translate(.678 28)">
    <path fill="#003F86" d="M322.948 525h33v187h-33z"/>
    <path fill="#003177" d="M323 568h33v27l-33 14z"/>
    <rect width="199" height="396" x="241" y="172" fill="#003F86" rx="4"/>
    <g fill="#FFF" fill-rule="nonzero">
      <path d="M359.438 539.846c.958 0 1.562.296 2.051.738l.12.114-.77.891c-.426-.386-.859-.623-1.41-.623-.879 0-1.525.694-1.59 1.572l-.006.163c0 .947.653 1.736 1.597 1.736.566 0 .935-.205 1.319-.533l.128-.114.771.78c-.566.608-1.196.987-2.258.987-1.56 0-2.734-1.163-2.82-2.665l-.004-.19c0-1.57 1.18-2.856 2.872-2.856zm-6.581 0c1.606 0 2.685 1.177 2.763 2.666l.005.19c0 1.569-1.116 2.855-2.784 2.855-1.606 0-2.686-1.178-2.764-2.667l-.005-.189c0-1.57 1.117-2.855 2.785-2.855zm-33.03 0c.96 0 1.563.296 2.052.738l.12.114-.77.891c-.425-.386-.858-.623-1.409-.623-.88 0-1.526.694-1.592 1.572l-.005.163c0 .947.653 1.736 1.597 1.736.567 0 .935-.205 1.319-.533l.129-.114.77.78c-.566.608-1.195.987-2.257.987-1.561 0-2.735-1.163-2.82-2.665l-.005-.19c0-1.57 1.18-2.856 2.872-2.856zm-7.836.094v3.124c0 .9.545 1.365 1.338 1.365.747 0 1.274-.399 1.333-1.175l.006-.15v-3.164h1.211v3.116c0 1.672-1.06 2.493-2.565 2.493-1.445 0-2.452-.763-2.53-2.262l-.005-.191v-3.156h1.212zm58.456 0v4.418h2.746v1.104h-3.958v-5.522h1.212zm-4.593-.039l2.56 5.561h-1.266l-.504-1.138h-2.735l-.498 1.138h-1.235l2.56-5.561h1.118zm-41.754.04v2.463l1.908-2.464h1.463l-1.954 2.492 2.067 3.03h-1.456l-1.46-2.179-.568.591v1.588h-1.212v-5.522h1.212zm5.067 0l1.073 2.427 1.097-2.428h1.301l-1.8 3.723v1.8h-1.211v-1.777l-1.8-3.746h1.34zm-21.955 0v4.417h2.745v1.104H306v-5.522h1.212zm39.61 0v4.417h2.745v1.104h-3.957v-5.522h1.211zm6.019 1.025c-.92 0-1.442.69-1.497 1.563l-.005.172c0 .947.58 1.736 1.518 1.736.885 0 1.437-.69 1.496-1.564l.005-.172c0-.946-.543-1.735-1.517-1.735zm12.438.244l-.882 2.041h1.764l-.882-2.041zM338.582 535.005l.201-.005.201.005c.24.012.584.049.974.15a4.295 4.295 0 011.416.648c.515.366.92.843 1.204 1.42.328.664.494 1.463.494 2.374 0 .83-.217 1.726-.645 2.66a12.084 12.084 0 01-1.387 2.26l-.218.279-.269.329c-.246.292-.544.627-.888.979l-.299.297-.333.311-.25.22-.284-.25-.3-.28-.298-.298-.252-.263a17.81 17.81 0 01-.141-.153l-.308-.345a16.677 16.677 0 01-.673-.825 12.084 12.084 0 01-1.387-2.26c-.429-.935-.646-1.83-.646-2.661 0-.911.166-1.71.494-2.375a3.762 3.762 0 011.204-1.42c.412-.292.888-.51 1.416-.647.39-.101.735-.138.974-.15zm.201.754l-.168.004c-.2.01-.488.041-.816.127-.438.113-.831.292-1.168.532-.914.65-1.378 1.718-1.378 3.175 0 .719.193 1.505.573 2.337.311.68.747 1.392 1.295 2.112.11.144.218.281.326.413l.318.378.302.338.276.294.347.35.093.09.314-.31.26-.272.29-.316.311-.358c.16-.189.323-.392.487-.607a11.3 11.3 0 001.295-2.112c.38-.832.573-1.618.573-2.337 0-1.457-.464-2.526-1.378-3.175a3.542 3.542 0 00-1.168-.532 4.134 4.134 0 00-.71-.12l-.198-.01-.076-.001zm-2.436 2.79l.729.212a1.801 1.801 0 003.41 1.158l.047-.158.73.211a2.56 2.56 0 01-4.967-1.244l.05-.178zm4.088-1.126a.519.519 0 110 1.038.519.519 0 010-1.038zm-1.652-.647v.759l-.164.007c-.326.03-.633.145-.895.337l-.127.102-.5-.571a2.552 2.552 0 011.48-.626l.206-.008zM371.291 550.939h.21v-.71l.451-.525.937 1.235h.261l-1.061-1.4 1.04-1.209h-.269l-1.352 1.595h-.007v-1.595h-.21v2.609zm-2.802-1.25v-1.168h.665c.393 0 .64.195.64.58 0 .335-.195.589-.695.589h-.61zm-.21 1.25h.21v-1.055h.577l.742 1.055h.253l-.764-1.073c.437-.055.713-.298.713-.764 0-.441-.254-.772-.838-.772h-.893v2.609zm-2.83 0h1.634v-.191h-1.426v-1.014h1.121v-.191h-1.12v-1.022h1.348v-.19h-1.558v2.608zm-3.762 0h.213l.672-2.307h.004l.669 2.307h.217l.837-2.609h-.224l-.724 2.274h-.004l-.657-2.274h-.235l-.662 2.274h-.003l-.72-2.274h-.224l.84 2.609zm-3.67 0h1.775v-.191h-1.499l-.007-.008 1.495-2.237v-.173h-1.675v.191h1.396l.004.008-1.488 2.237v.173zm-2.045 0h.21v-2.418h.826v-.19h-1.851v.19h.815v2.418zm-3.423 0h1.635v-.191h-1.425v-1.014h1.12v-.191h-1.12v-1.022h1.348v-.19h-1.558v2.608zm-3.423 0h.21v-2.245h.003l1.646 2.245h.21v-2.609h-.206v2.26h-.007l-1.65-2.26h-.205v2.609zm-2.06.018c.485 0 .845-.268.845-.698 0-.47-.374-.584-.8-.753-.335-.132-.625-.243-.625-.551 0-.294.275-.452.558-.452.206 0 .449.092.654.261l.129-.166a1.278 1.278 0 00-.786-.286c-.445 0-.772.28-.772.65 0 .441.393.603.768.746.367.143.658.231.658.57 0 .312-.272.48-.621.48a.963.963 0 01-.768-.363l-.14.162c.243.279.577.4.9.4m-2.897-.018h.21v-2.418h.826v-.19h-1.852v.19h.816v2.418zm-3.368 0h.21v-1.18h1.215v-.194h-1.216v-1.044h1.418v-.19h-1.627v2.608zm-2.799-.89l.555-1.469h.008l.554 1.47h-1.117zm-.55.89h.22l.264-.702h1.25l.268.702h.22l-1.007-2.609h-.22l-.996 2.609zm-3.078 0h.21v-1.14h1.531v1.14h.21v-2.609h-.21v1.279h-1.532v-1.279h-.21v2.609zm-2.163.014c.46 0 .779-.205 1.007-.488l-.158-.132c-.199.246-.47.422-.85.422-.602 0-1.068-.404-1.068-1.11 0-.65.39-1.135 1.065-1.135.316 0 .61.129.849.43l.158-.136a1.268 1.268 0 00-1.007-.492c-.83 0-1.282.591-1.282 1.334 0 .848.584 1.307 1.286 1.307m-3.243.004c.485 0 .845-.268.845-.698 0-.47-.375-.584-.801-.753-.334-.132-.625-.243-.625-.551 0-.294.276-.452.559-.452.206 0 .448.092.654.261l.128-.165a1.278 1.278 0 00-.786-.287c-.444 0-.771.28-.771.65 0 .441.393.603.768.746.367.143.657.232.657.57 0 .312-.272.48-.62.48a.962.962 0 01-.768-.363l-.14.162c.242.279.577.4.9.4m-3.537-1.267v-1.169h.665c.393 0 .64.195.64.58 0 .335-.195.589-.695.589h-.61zm-.21 1.249h.21v-1.055h.577l.742 1.055h.254l-.765-1.073c.438-.055.713-.298.713-.764 0-.441-.253-.772-.838-.772h-.893v2.609zm-2.798-.89l.555-1.469h.007l.555 1.47h-1.117zm-.55.89h.22l.264-.702h1.25l.267.702h.22l-1.006-2.609h-.22l-.996 2.609zm-2.55-.191v-1.07h.64c.451 0 .701.206.701.552 0 .349-.275.518-.68.518h-.66zm0-1.257v-.97h.578c.451 0 .639.188.639.478 0 .371-.301.492-.588.492h-.629zm-.209 1.448h.882c.602 0 .885-.287.885-.698 0-.4-.268-.614-.573-.669v-.004a.607.607 0 00.445-.606c0-.455-.35-.632-.834-.632h-.805v2.609zm-3.302 0h.21v-1.14h1.532v1.14h.21v-2.609h-.21v1.279h-1.533v-1.279h-.209v2.609zm-2.162.015c.459 0 .779-.206 1.006-.489l-.158-.132c-.199.246-.47.422-.849.422-.602 0-1.069-.404-1.069-1.11 0-.65.39-1.135 1.066-1.135.316 0 .61.129.848.43l.158-.136a1.268 1.268 0 00-1.006-.492c-.83 0-1.283.591-1.283 1.334 0 .848.584 1.307 1.286 1.307m-3.856-.903l.554-1.47h.008l.555 1.47h-1.117zm-.551.889h.22l.265-.702h1.249l.268.702h.22l-1.006-2.609h-.22l-.996 2.609zm-3.2 0h.21v-2.245h.004l1.646 2.245h.21v-2.609h-.207v2.26h-.007l-1.65-2.26h-.205v2.609z"/>
    </g>
  </g>
</svg>
