<svg xmlns="http://www.w3.org/2000/svg" xmlns:xlink="http://www.w3.org/1999/xlink" viewBox="0 0 274 274">
  <defs>
    <linearGradient id="b" x1="0%" x2="100%" y1="18.029%" y2="79.654%">
      <stop offset="0%" stop-color="#3A70AD"/>
      <stop offset="100%" stop-color="#7F9FC2"/>
    </linearGradient>
    <linearGradient id="d" x1="30.964%" x2="69.036%" y1="0%" y2="100%">
      <stop offset="0%" stop-color="#EF378B"/>
      <stop offset="47.687%" stop-color="#E6294D"/>
      <stop offset="100%" stop-color="#EE6960"/>
    </linearGradient>
    <path id="a" d="M99 .2v74.544a3.456 3.456 0 01-3.456 3.456H3.456A3.456 3.456 0 010 74.744V.2h99z"/>
    <path id="e" d="M112.19 3.485l1.81 19.47c0 3.338-2.836 6.045-6.333 6.045-1.255 0-2.445-.583-3.572-1.75a3.84 3.84 0 00-5.523 0C97.445 28.418 96.254 29 95 29s-2.445-.583-3.572-1.75a3.84 3.84 0 00-5.523 0C84.778 28.418 83.588 29 82.333 29c-1.254 0-2.445-.583-3.571-1.75a3.84 3.84 0 00-5.524 0C72.112 28.418 70.921 29 69.667 29c-1.255 0-2.445-.583-3.572-1.75a3.84 3.84 0 00-5.523 0C59.445 28.418 58.254 29 57 29s-2.445-.583-3.572-1.75a3.84 3.84 0 00-5.523 0C46.778 28.418 45.588 29 44.333 29c-1.254 0-2.445-.583-3.571-1.75a3.84 3.84 0 00-5.524 0C34.112 28.418 32.921 29 31.667 29c-1.255 0-2.445-.583-3.572-1.75a3.84 3.84 0 00-5.523 0C21.445 28.418 20.254 29 19 29c-1.25 0-2.448-.583-3.593-1.749a3.84 3.84 0 00-5.477-.001C8.782 28.417 7.584 29 6.333 29c-3.425 0-6.215-2.595-6.33-5.838L0 22.955 2.68 3.32A3.84 3.84 0 016.485 0h101.882a3.84 3.84 0 013.823 3.485z"/>
  </defs>
  <g fill="none" fill-rule="evenodd">
    <rect width="273.221" height="273.221" fill="#003F86" rx="136.61"/>
    <path fill="#FFF" fill-rule="nonzero" d="M91.672 90v-3.934h3.206v-4.882h-3.206V64.973h-4.627L75.79 82.532v3.534h10.127V90h5.756zm-5.246-8.452h-4.59l4.59-7.395v7.395zm19.975 8.78c4.955 0 8.598-2.769 8.598-7.177 0-2.878-1.494-4.954-3.862-6.047v-.11c1.931-1.201 3.097-3.169 3.097-5.61 0-4.298-3.643-6.739-8.197-6.739-3.716 0-6.776 1.967-7.869 4.7l4.736 2.513c.583-1.275 1.457-1.967 2.951-1.967 1.566 0 2.696 1.02 2.696 2.55 0 1.42-.911 2.477-2.66 2.477h-2.04v4.59h1.64c2.258 0 3.388 1.275 3.388 2.842 0 1.821-1.385 2.805-2.915 2.805-1.93 0-3.06-.91-3.606-2.623l-5.137 2.04c1.202 3.279 4.59 5.756 9.18 5.756zm15.86 0c1.784 0 3.278-1.42 3.278-3.206 0-1.785-1.494-3.242-3.279-3.242-1.821 0-3.278 1.457-3.278 3.242s1.457 3.206 3.278 3.206zm17.097 0c6.12 0 9.982-5.027 9.982-12.86 0-8.014-4.008-12.823-9.982-12.823-6.084 0-9.945 5.1-9.945 12.823 0 8.051 3.97 12.86 9.945 12.86zm0-5.537c-2.55 0-3.862-2.951-3.862-7.323 0-4.918 1.567-7.286 3.862-7.286 2.586 0 3.861 2.915 3.861 7.286 0 4.991-1.53 7.323-3.861 7.323zm23.91 5.537c6.12 0 9.981-5.027 9.981-12.86 0-8.014-4.007-12.823-9.981-12.823-6.084 0-9.945 5.1-9.945 12.823 0 8.051 3.97 12.86 9.945 12.86zm0-5.537c-2.55 0-3.862-2.951-3.862-7.323 0-4.918 1.567-7.286 3.862-7.286 2.586 0 3.861 2.915 3.861 7.286 0 4.991-1.53 7.323-3.861 7.323zm23.91 5.537c6.12 0 9.981-5.027 9.981-12.86 0-8.014-4.007-12.823-9.981-12.823-6.084 0-9.946 5.1-9.946 12.823 0 8.051 3.971 12.86 9.946 12.86zm0-5.537c-2.55 0-3.862-2.951-3.862-7.323 0-4.918 1.567-7.286 3.862-7.286 2.586 0 3.861 2.915 3.861 7.286 0 4.991-1.53 7.323-3.861 7.323zM108.75 47.322l1.73-14.108h-2.365l-1.729 14.108h2.365zm6.187 0l.437-3.616c.318-2.425 2.146-4.253 3.338-4.253.954 0 1.133.795.934 2.206l-.755 5.663h2.166l.795-5.842c.358-2.663-.338-3.994-2.404-3.994-1.292 0-2.464.596-3.478 1.828l-.04-.02.2-1.669h-2.167l-1.212 9.697h2.186zm12.505.159c2.226 0 3.756-1.073 3.736-3.12-.02-1.49-1.47-2.146-2.583-2.702-.875-.417-1.59-.835-1.59-1.391s.457-.914 1.133-.914c.596 0 1.37.258 1.947.974l1.45-1.47c-.874-.974-2.185-1.372-3.377-1.372-1.829 0-3.359 1.172-3.359 2.96 0 1.432 1.054 2.266 2.405 2.862 1.113.517 1.768.755 1.768 1.312 0 .616-.695.953-1.53.953-.795 0-1.57-.437-2.126-1.172l-1.43 1.41c.675 1.014 2.126 1.67 3.556 1.67zm8.69 0c.775 0 1.73-.238 2.444-.676l-.298-1.907c-.536.318-1.033.497-1.39.497-.477 0-.756-.318-.656-1.153l.596-4.769h2.364l.219-1.848h-2.365l.418-3.457-2.206.437-.397 3.02h-1.034l-.218 1.848h1.033l-.636 5.167c-.199 1.689.457 2.841 2.126 2.841zm8.492 0c3.358 0 5.186-2.663 5.186-6 0-2.564-1.65-3.995-4.113-3.995-3.2 0-5.147 2.782-5.147 5.902 0 2.603 1.59 4.093 4.074 4.093zm.06-1.987c-1.233 0-1.948-1.013-1.948-2.365 0-1.828 1.113-3.656 2.822-3.656.834 0 2.046.398 2.046 2.206 0 2.106-1.172 3.815-2.92 3.815zm9.643 1.828l.437-3.636c.318-2.424 1.51-4.074 3.478-3.716l.298-2.484c-1.173.02-2.285.636-3.2 1.908h-.04l.22-1.769h-2.167l-1.212 9.697h2.186zm9.167.14c1.848 0 2.881-.657 3.994-1.79l-1.709-1.231c-.695.715-1.311 1.033-2.205 1.033-.855 0-1.67-.517-1.828-1.61 3-.337 6.02-1.291 6.02-3.755 0-1.709-1.49-2.623-3.12-2.623-3.238 0-5.086 2.782-5.086 5.941 0 2.524 1.51 4.034 3.934 4.034zm-1.65-5.346c.418-1.868 1.69-2.663 2.703-2.663.656 0 1.014.278 1.014.755 0 1.173-1.809 1.69-3.716 1.908z"/>
    <g transform="translate(87 142.8)">
      <mask id="c" fill="#fff">
        <use xlink:href="#a"/>
      </mask>
      <use fill="#F2F5F9" xlink:href="#a"/>
      <path fill="url(#b)" d="M93 5.2v67H6v-67z" mask="url(#c)"/>
      <path fill="#CCD9E7" d="M103.379-19.56L107 3.338c0 3.237-2.836 5.862-6.333 5.862-1.265 0-2.465-.575-3.6-1.725a3.84 3.84 0 00-5.467 0C90.465 8.625 89.265 9.2 88 9.2c-1.265 0-2.465-.575-3.6-1.725a3.84 3.84 0 00-5.466 0c-1.136 1.15-2.336 1.725-3.6 1.725-1.266 0-2.466-.575-3.6-1.725a3.84 3.84 0 00-5.467 0c-1.135 1.15-2.335 1.725-3.6 1.725-1.265 0-2.465-.575-3.6-1.725a3.84 3.84 0 00-5.467 0C52.465 8.625 51.265 9.2 50 9.2c-1.265 0-2.465-.575-3.6-1.725a3.84 3.84 0 00-5.466 0c-1.136 1.15-2.336 1.725-3.6 1.725-1.266 0-2.466-.575-3.6-1.725a3.84 3.84 0 00-5.467 0c-1.135 1.15-2.335 1.725-3.6 1.725-1.265 0-2.465-.575-3.6-1.725a3.84 3.84 0 00-5.467 0C14.465 8.625 13.265 9.2 12 9.2c-1.26 0-2.468-.575-3.623-1.725a3.84 3.84 0 00-5.418-.001C1.803 8.624.594 9.2-.667 9.2c-3.425 0-6.215-2.516-6.33-5.66L-7 3.337l3.621-22.898A3.84 3.84 0 01.414-22.8h99.172a3.84 3.84 0 013.793 3.24z" mask="url(#c)"/>
    </g>
    <g transform="translate(120 156)">
      <rect width="33" height="54" fill="#FFF" rx="2.4"/>
      <path fill="#FFF" fill-rule="nonzero" d="M20 54v5h-6v-5z"/>
      <path fill="url(#d)" d="M0 0h29v47H0z" transform="translate(2 2)"/>
      <path fill="#FFF" d="M16.397 13.75h.103l.16.002.192.007.144.01.158.012.169.017c.378.042.834.12 1.329.258.966.27 1.838.699 2.593 1.276.943.72 1.685 1.66 2.205 2.795.6 1.309.904 2.882.904 4.677 0 1.636-.397 3.399-1.182 5.24-.615 1.443-1.47 2.941-2.54 4.451l-.18.25-.131.182-.143.192-.232.307-.166.216-.177.224-.185.232-.195.24-.101.122-.208.249-.218.254-.226.26-.116.13-.239.266-.311.337-.271.286-.264.27-.252.25-.517.488-.521-.492-.126-.124-.231-.233-.197-.203-.229-.242-.311-.337-.22-.244-.241-.274-.171-.198-.179-.21-.185-.22-.288-.352-.199-.248a33.636 33.636 0 01-.1-.127l-.204-.263c-.103-.133-.207-.27-.31-.41l-.21-.285-.21-.293c-1.07-1.51-1.925-3.008-2.54-4.452-.785-1.84-1.182-3.603-1.182-5.24 0-1.794.304-3.367.904-4.676.52-1.134 1.262-2.075 2.205-2.795a7.623 7.623 0 012.593-1.276c.495-.139.95-.216 1.33-.258l.168-.017.158-.013.144-.009.132-.005.117-.003zm.148 1.495h-.14l-.115.004-.129.006-.143.01-.077.007-.163.017c-.31.036-.678.1-1.08.213a6.282 6.282 0 00-2.138 1.048c-1.675 1.28-2.525 3.384-2.525 6.254 0 1.416.353 2.965 1.05 4.603.57 1.34 1.368 2.74 2.372 4.16.24.338.48.662.715.968l.2.258.199.25.195.24.19.231.187.222.18.21.175.202.25.28.232.257.214.23.306.321.176-.183.2-.212.219-.239.157-.173.165-.185.26-.297.18-.211.187-.222.19-.23.097-.12.197-.245.2-.254.1-.13.203-.267c.17-.225.341-.46.512-.7 1.004-1.42 1.802-2.82 2.372-4.16.697-1.64 1.05-3.188 1.05-4.604 0-2.87-.85-4.974-2.525-6.254a6.282 6.282 0 00-2.138-1.048 7.093 7.093 0 00-.502-.12l-.188-.036-.179-.029a7.012 7.012 0 00-.25-.032l-.153-.016-.14-.01-.13-.008-.167-.006h-.048zm-4.507 5.496l1.336.416c-.113.36-.171.74-.171 1.131 0 .947.343 1.838.966 2.507.622.67 1.45 1.039 2.331 1.039.88 0 1.709-.369 2.331-1.039.408-.438.695-.97.845-1.551l.029-.117 1.335.416a5.28 5.28 0 01-.222.707 5.06 5.06 0 01-1.004 1.602c-.43.463-.931.826-1.49 1.08a4.377 4.377 0 01-1.824.396 4.377 4.377 0 01-1.824-.396 4.667 4.667 0 01-1.49-1.08 5.06 5.06 0 01-1.004-1.602 5.338 5.338 0 01-.369-1.962c0-.478.062-.945.183-1.397l.042-.15zm7.487-2.219c.525 0 .95.458.95 1.022 0 .564-.425 1.022-.95 1.022-.525 0-.95-.458-.95-1.022 0-.564.425-1.022.95-1.022zM16.5 17.248v1.494l-.105.002a3.138 3.138 0 00-1.984.8l-.083.076-.915-1.124c.376-.355.8-.641 1.263-.852a4.376 4.376 0 011.678-.394l.146-.002z"/>
    </g>
    <use fill="#F2F5F9" transform="translate(80 118)" xlink:href="#e"/>
  </g>
</svg>
