<svg xmlns="http://www.w3.org/2000/svg" xmlns:xlink="http://www.w3.org/1999/xlink" viewBox="0 0 274 274">
  <defs>
    <linearGradient id="c" x1="31.167%" x2="68.833%" y1="0%" y2="100%">
      <stop offset="0%" stop-color="#EF378B"/>
      <stop offset="47.687%" stop-color="#E6294D"/>
      <stop offset="100%" stop-color="#EE6960"/>
    </linearGradient>
    <linearGradient id="d" x1="30.469%" x2="69.531%" y1="0%" y2="100%">
      <stop offset="0%" stop-color="#EF378B"/>
      <stop offset="47.687%" stop-color="#E6294D"/>
      <stop offset="100%" stop-color="#EE6960"/>
    </linearGradient>
    <linearGradient id="f" x1="0%" x2="100%" y1="21.01%" y2="76.889%">
      <stop offset="0%" stop-color="#3A70AD"/>
      <stop offset="100%" stop-color="#7F9FC2"/>
    </linearGradient>
    <linearGradient id="i" x1="30.469%" x2="69.531%" y1="0%" y2="100%">
      <stop offset="0%" stop-color="#EF378B"/>
      <stop offset="47.687%" stop-color="#E6294D"/>
      <stop offset="100%" stop-color="#EE6960"/>
    </linearGradient>
    <path id="e" d="M76.817.15v55.594a2.577 2.577 0 01-2.577 2.578H3.323a2.577 2.577 0 01-2.577-2.578V.15h76.071z"/>
    <path id="h" d="M83.671 2.599l1.35 14.52c0 2.49-2.115 4.51-4.723 4.51-.936 0-1.824-.436-2.664-1.305a2.864 2.864 0 00-4.12 0c-.84.87-1.727 1.304-2.663 1.304-.936 0-1.823-.435-2.664-1.304a2.864 2.864 0 00-4.12 0c-.84.87-1.727 1.304-2.663 1.304-.935 0-1.823-.435-2.663-1.304a2.864 2.864 0 00-4.12 0c-.84.87-1.728 1.304-2.664 1.304-.935 0-1.823-.435-2.663-1.304a2.864 2.864 0 00-4.12 0c-.84.87-1.728 1.304-2.663 1.304-.936 0-1.824-.435-2.664-1.304a2.864 2.864 0 00-4.12 0c-.84.87-1.728 1.304-2.663 1.304-.936 0-1.824-.435-2.664-1.304a2.864 2.864 0 00-4.12 0c-.84.87-1.727 1.304-2.663 1.304-.936 0-1.823-.435-2.664-1.304a2.864 2.864 0 00-4.12 0c-.84.87-1.727 1.304-2.663 1.304-.932 0-1.825-.435-2.68-1.304a2.864 2.864 0 00-4.084-.001c-.856.87-1.75 1.305-2.683 1.305-2.554 0-4.635-1.935-4.72-4.353L0 17.12 2 2.475A2.864 2.864 0 014.836 0H80.82a2.864 2.864 0 012.851 2.599z"/>
    <rect id="a" width="273.221" height="273.221" x=".39" y=".038" rx="136.61"/>
  </defs>
  <g fill="none" fill-rule="evenodd">
    <g>
      <mask id="b" fill="#fff">
        <use xlink:href="#a"/>
      </mask>
      <use fill="#E6294D" xlink:href="#a"/>
      <g mask="url(#b)">
        <path fill="url(#c)" d="M0 0h286v466H0z" transform="translate(-5.5 -104)"/>
      </g>
    </g>
    <path fill="#FFF" fill-rule="nonzero" d="M89.773 91.328c5.282 0 9.18-3.315 9.18-8.379 0-5.246-3.57-8.087-7.54-8.087a9.12 9.12 0 00-4.008.947l-.036-.036c1.348-2.915 4.007-4.773 8.451-6.048l-1.639-4.59c-8.415 1.603-13.442 8.342-13.442 15.956 0 6.193 3.752 10.237 9.034 10.237zm.11-5.173c-1.931 0-3.607-1.712-3.607-4.48v-.365c.91-1.093 2.295-1.822 3.57-1.822 2.113 0 3.46 1.385 3.46 3.279s-1.31 3.388-3.424 3.388zM112.552 91V65.973h-4.699l-7.868 5.574 2.805 4.371 3.788-2.805V91h5.975zm8.647.328c1.785 0 3.278-1.42 3.278-3.206 0-1.785-1.493-3.242-3.278-3.242-1.822 0-3.279 1.457-3.279 3.242s1.457 3.206 3.279 3.206zm17.097 0c6.12 0 9.982-5.027 9.982-12.86 0-8.014-4.007-12.823-9.982-12.823-6.084 0-9.945 5.1-9.945 12.823 0 8.051 3.97 12.86 9.945 12.86zm0-5.537c-2.55 0-3.861-2.951-3.861-7.323 0-4.918 1.566-7.286 3.861-7.286 2.587 0 3.862 2.915 3.862 7.286 0 4.991-1.53 7.323-3.862 7.323zm23.91 5.537c6.12 0 9.982-5.027 9.982-12.86 0-8.014-4.008-12.823-9.982-12.823-6.084 0-9.945 5.1-9.945 12.823 0 8.051 3.97 12.86 9.945 12.86zm0-5.537c-2.55 0-3.862-2.951-3.862-7.323 0-4.918 1.567-7.286 3.862-7.286 2.586 0 3.862 2.915 3.862 7.286 0 4.991-1.53 7.323-3.862 7.323zm23.91 5.537c6.12 0 9.981-5.027 9.981-12.86 0-8.014-4.007-12.823-9.981-12.823-6.084 0-9.945 5.1-9.945 12.823 0 8.051 3.97 12.86 9.945 12.86zm0-5.537c-2.55 0-3.862-2.951-3.862-7.323 0-4.918 1.567-7.286 3.862-7.286 2.586 0 3.861 2.915 3.861 7.286 0 4.991-1.53 7.323-3.861 7.323zM94.617 49.322l1.729-14.108H93.98l-1.729 14.108h2.365zm6.186 0l.438-3.616c.318-2.425 2.146-4.253 3.338-4.253.954 0 1.132.795.934 2.206l-.755 5.663h2.166l.794-5.842c.358-2.663-.337-3.994-2.404-3.994-1.292 0-2.464.596-3.477 1.828l-.04-.02.199-1.669H99.83l-1.212 9.697h2.185zm12.506.159c2.225 0 3.755-1.073 3.735-3.12-.02-1.49-1.47-2.146-2.583-2.702-.874-.417-1.59-.835-1.59-1.391s.458-.914 1.133-.914c.596 0 1.371.258 1.947.974l1.451-1.47c-.874-.974-2.186-1.372-3.378-1.372-1.828 0-3.358 1.172-3.358 2.96 0 1.432 1.053 2.266 2.404 2.862 1.113.517 1.769.755 1.769 1.312 0 .616-.696.953-1.53.953-.795 0-1.57-.437-2.126-1.172l-1.431 1.41c.675 1.014 2.126 1.67 3.557 1.67zm8.988 3.915c2.662 0 4.948-.954 5.484-5.286l1.033-8.485h-2.166l-.099.755-.04.02c-.655-.636-1.59-.914-2.583-.914-2.9 0-4.749 3-4.749 5.743 0 2.166 1.014 3.934 3.318 3.934 1.074 0 2.266-.676 3.18-2.047l.04.02-.1.815c-.357 2.901-1.53 3.457-3.219 3.457-1.013 0-1.828-.298-2.663-.834l-.715 1.888c1.014.655 2.146.934 3.279.934zm.616-6.16c-.994 0-1.53-.775-1.53-1.968 0-1.649.993-3.795 2.722-3.795.735 0 1.61.338 2.186.914l-.1.656c-.377 2.504-1.987 4.193-3.278 4.193zm12.108 2.225c1.848 0 2.88-.656 3.994-1.788l-1.71-1.232c-.695.715-1.31 1.033-2.205 1.033-.854 0-1.67-.517-1.828-1.61 3-.337 6.02-1.291 6.02-3.755 0-1.709-1.49-2.623-3.119-2.623-3.239 0-5.087 2.782-5.087 5.941 0 2.524 1.51 4.034 3.935 4.034zm-1.65-5.345c.418-1.868 1.69-2.663 2.703-2.663.655 0 1.013.278 1.013.755 0 1.173-1.808 1.69-3.716 1.908zm10.896 5.365c2.226 0 3.756-1.073 3.736-3.12-.02-1.49-1.47-2.146-2.583-2.702-.875-.417-1.59-.835-1.59-1.391s.457-.914 1.133-.914c.596 0 1.37.258 1.947.974l1.45-1.47c-.874-.974-2.185-1.372-3.378-1.372-1.828 0-3.358 1.172-3.358 2.96 0 1.432 1.053 2.266 2.405 2.862 1.112.517 1.768.755 1.768 1.312 0 .616-.695.953-1.53.953-.795 0-1.57-.437-2.126-1.172l-1.43 1.41c.675 1.014 2.125 1.67 3.556 1.67zm9.167 0c1.013 0 2.186-.636 3.1-1.947l.06.02-.22 1.768h2.167l1.192-9.677h-2.166l-.1.755-.059.02c-.636-.656-1.55-.934-2.543-.934-2.901 0-4.77 3-4.77 6.06 0 2.167 1.034 3.935 3.339 3.935zm.417-1.927c-1.013 0-1.55-.775-1.55-1.968 0-1.967 1.014-4.113 2.723-4.113.755 0 1.629.338 2.205.894l-.04.358c-.377 2.98-1.987 4.829-3.338 4.829zm10.34 1.768l.437-3.616c.318-2.425 2.146-4.253 3.14-4.253.774 0 .953.795.774 2.206l-.755 5.663h2.166l.497-3.755c.338-2.464 2.166-4.114 3.12-4.114.774 0 .953.795.774 2.206l-.774 5.663h2.185l.795-5.842c.358-2.663-.338-3.994-2.345-3.994-1.311 0-2.444.576-3.397 1.769l-.08-.02c-.278-1.173-1.033-1.749-2.265-1.749-1.113 0-2.246.576-3.22 1.769l-.059-.02.199-1.61h-2.166l-1.212 9.697h2.186zm17.512.159c.775 0 1.729-.238 2.444-.676l-.298-1.907c-.536.318-1.033.497-1.39.497-.478 0-.756-.318-.656-1.153l.596-4.769h2.364l.219-1.848h-2.365l.418-3.457-2.206.437-.397 3.02h-1.034l-.218 1.848h1.033l-.636 5.167c-.199 1.689.457 2.841 2.126 2.841z"/>
    <g transform="translate(157 127)">
      <rect width="26.928" height="42.768" fill="#FFF" rx="1.901"/>
      <path fill="#FFF" fill-rule="nonzero" d="M15.84 42.768v7.92h-4.752v-7.92z"/>
      <path fill="url(#d)" d="M0 0h23.76v38.016H0z" transform="translate(1.584 1.584)"/>
      <path fill="#FFF" d="M13.38 11.089l.084-.001.13.002.158.006.119.007.129.01.138.014c.31.034.683.096 1.089.208a6.278 6.278 0 012.125 1.032 5.91 5.91 0 011.806 2.261c.492 1.059.741 2.332.741 3.783 0 1.324-.326 2.75-.968 4.238-.504 1.168-1.205 2.38-2.081 3.601l-.147.203-.109.146-.116.156-.19.248-.137.174-.144.182-.153.188-.16.193c-.026.033-.054.066-.082.099l-.17.201-.179.206-.185.21-.095.106-.196.215-.255.273-.222.23-.216.22-.207.201-.423.395-.427-.398-.103-.1-.19-.188-.161-.165-.187-.195-.255-.273-.18-.198-.198-.221-.14-.16-.147-.17-.151-.178-.237-.285-.162-.2a27.26 27.26 0 01-.082-.104l-.167-.212a26.16 26.16 0 01-.255-.332l-.171-.23-.173-.237c-.876-1.221-1.577-2.433-2.08-3.6-.643-1.49-.969-2.915-.969-4.239 0-1.451.25-2.724.74-3.783a5.91 5.91 0 011.807-2.26 6.278 6.278 0 012.125-1.033 6.982 6.982 0 011.089-.208l.138-.014.13-.01.118-.007.108-.005.096-.002zm.12 1.208h-.114l-.094.003-.106.005-.117.008-.063.006-.133.014c-.254.03-.556.081-.886.172a5.174 5.174 0 00-1.751.848c-1.373 1.035-2.069 2.737-2.069 5.058 0 1.146.29 2.398.86 3.724.467 1.084 1.121 2.216 1.944 3.364.196.274.392.536.585.783l.165.21.162.201.16.194.156.187.153.18.148.17.143.163.205.227.19.207.175.186.251.26.144-.148.163-.172.18-.193.13-.14.134-.15.213-.24.148-.17.153-.18.156-.187.08-.096.16-.198.164-.205.083-.106.166-.215c.139-.183.28-.372.42-.568.822-1.148 1.476-2.28 1.943-3.364.57-1.326.86-2.578.86-3.724 0-2.321-.696-4.023-2.069-5.058a5.174 5.174 0 00-1.751-.848 5.875 5.875 0 00-.412-.098l-.154-.028-.146-.023c-.072-.01-.14-.02-.205-.027l-.125-.012-.116-.01-.105-.005-.138-.005h-.04zM9.81 16.743l1.094.336c-.092.29-.14.599-.14.915 0 .766.28 1.486.79 2.028.511.542 1.19.84 1.911.84.722 0 1.4-.298 1.91-.84.334-.354.57-.785.692-1.255l.024-.094 1.094.336a4.232 4.232 0 01-.182.572c-.194.486-.47.922-.823 1.296a3.822 3.822 0 01-1.22.873c-.474.213-.977.32-1.495.32a3.625 3.625 0 01-1.495-.32 3.822 3.822 0 01-1.22-.873 4.085 4.085 0 01-.823-1.296 4.269 4.269 0 01-.302-1.587c0-.386.05-.765.15-1.13l.035-.121zm6.134-1.795c.43 0 .778.37.778.826 0 .457-.348.827-.778.827-.43 0-.779-.37-.779-.827 0-.456.349-.826.779-.826zm-2.479-1.03v1.208l-.086.001c-.6.02-1.166.247-1.625.648l-.069.061-.75-.91a3.795 3.795 0 011.035-.688c.438-.197.9-.304 1.376-.319l.119-.002z"/>
    </g>
    <g transform="translate(90 114)">
      <rect width="26.928" height="42.768" fill="#FFF" rx="1.901"/>
      <path fill="#FFF" fill-rule="nonzero" d="M15.84 42.768v7.92h-4.752v-7.92z"/>
      <path fill="url(#d)" d="M0 0h23.76v38.016H0z" transform="translate(1.584 1.584)"/>
      <path fill="#FFF" d="M13.38 11.089l.084-.001.13.002.158.006.119.007.129.01.138.014c.31.034.683.096 1.089.208a6.278 6.278 0 012.125 1.032 5.91 5.91 0 011.806 2.261c.492 1.059.741 2.332.741 3.783 0 1.324-.326 2.75-.968 4.238-.504 1.168-1.205 2.38-2.081 3.601l-.147.203-.109.146-.116.156-.19.248-.137.174-.144.182-.153.188-.16.193c-.026.033-.054.066-.082.099l-.17.201-.179.206-.185.21-.095.106-.196.215-.255.273-.222.23-.216.22-.207.201-.423.395-.427-.398-.103-.1-.19-.188-.161-.165-.187-.195-.255-.273-.18-.198-.198-.221-.14-.16-.147-.17-.151-.178-.237-.285-.162-.2a27.26 27.26 0 01-.082-.104l-.167-.212a26.16 26.16 0 01-.255-.332l-.171-.23-.173-.237c-.876-1.221-1.577-2.433-2.08-3.6-.643-1.49-.969-2.915-.969-4.239 0-1.451.25-2.724.74-3.783a5.91 5.91 0 011.807-2.26 6.278 6.278 0 012.125-1.033 6.982 6.982 0 011.089-.208l.138-.014.13-.01.118-.007.108-.005.096-.002zm.12 1.208h-.114l-.094.003-.106.005-.117.008-.063.006-.133.014c-.254.03-.556.081-.886.172a5.174 5.174 0 00-1.751.848c-1.373 1.035-2.069 2.737-2.069 5.058 0 1.146.29 2.398.86 3.724.467 1.084 1.121 2.216 1.944 3.364.196.274.392.536.585.783l.165.21.162.201.16.194.156.187.153.18.148.17.143.163.205.227.19.207.175.186.251.26.144-.148.163-.172.18-.193.13-.14.134-.15.213-.24.148-.17.153-.18.156-.187.08-.096.16-.198.164-.205.083-.106.166-.215c.139-.183.28-.372.42-.568.822-1.148 1.476-2.28 1.943-3.364.57-1.326.86-2.578.86-3.724 0-2.321-.696-4.023-2.069-5.058a5.174 5.174 0 00-1.751-.848 5.875 5.875 0 00-.412-.098l-.154-.028-.146-.023c-.072-.01-.14-.02-.205-.027l-.125-.012-.116-.01-.105-.005-.138-.005h-.04zM9.81 16.743l1.094.336c-.092.29-.14.599-.14.915 0 .766.28 1.486.79 2.028.511.542 1.19.84 1.911.84.722 0 1.4-.298 1.91-.84.334-.354.57-.785.692-1.255l.024-.094 1.094.336a4.232 4.232 0 01-.182.572c-.194.486-.47.922-.823 1.296a3.822 3.822 0 01-1.22.873c-.474.213-.977.32-1.495.32a3.625 3.625 0 01-1.495-.32 3.822 3.822 0 01-1.22-.873 4.085 4.085 0 01-.823-1.296 4.269 4.269 0 01-.302-1.587c0-.386.05-.765.15-1.13l.035-.121zm6.134-1.795c.43 0 .778.37.778.826 0 .457-.348.827-.778.827-.43 0-.779-.37-.779-.827 0-.456.349-.826.779-.826zm-2.479-1.03v1.208l-.086.001c-.6.02-1.166.247-1.625.648l-.069.061-.75-.91a3.795 3.795 0 011.035-.688c.438-.197.9-.304 1.376-.319l.119-.002z"/>
    </g>
    <g transform="translate(136 118)">
      <rect width="26.928" height="42.768" fill="#FFF" rx="1.901"/>
      <path fill="#FFF" fill-rule="nonzero" d="M15.84 42.768v7.92h-4.752v-7.92z"/>
      <path fill="url(#d)" d="M0 0h23.76v38.016H0z" transform="translate(1.584 1.584)"/>
      <path fill="#FFF" d="M13.38 11.089l.084-.001.13.002.158.006.119.007.129.01.138.014c.31.034.683.096 1.089.208a6.278 6.278 0 012.125 1.032 5.91 5.91 0 011.806 2.261c.492 1.059.741 2.332.741 3.783 0 1.324-.326 2.75-.968 4.238-.504 1.168-1.205 2.38-2.081 3.601l-.147.203-.109.146-.116.156-.19.248-.137.174-.144.182-.153.188-.16.193c-.026.033-.054.066-.082.099l-.17.201-.179.206-.185.21-.095.106-.196.215-.255.273-.222.23-.216.22-.207.201-.423.395-.427-.398-.103-.1-.19-.188-.161-.165-.187-.195-.255-.273-.18-.198-.198-.221-.14-.16-.147-.17-.151-.178-.237-.285-.162-.2a27.26 27.26 0 01-.082-.104l-.167-.212a26.16 26.16 0 01-.255-.332l-.171-.23-.173-.237c-.876-1.221-1.577-2.433-2.08-3.6-.643-1.49-.969-2.915-.969-4.239 0-1.451.25-2.724.74-3.783a5.91 5.91 0 011.807-2.26 6.278 6.278 0 012.125-1.033 6.982 6.982 0 011.089-.208l.138-.014.13-.01.118-.007.108-.005.096-.002zm.12 1.208h-.114l-.094.003-.106.005-.117.008-.063.006-.133.014c-.254.03-.556.081-.886.172a5.174 5.174 0 00-1.751.848c-1.373 1.035-2.069 2.737-2.069 5.058 0 1.146.29 2.398.86 3.724.467 1.084 1.121 2.216 1.944 3.364.196.274.392.536.585.783l.165.21.162.201.16.194.156.187.153.18.148.17.143.163.205.227.19.207.175.186.251.26.144-.148.163-.172.18-.193.13-.14.134-.15.213-.24.148-.17.153-.18.156-.187.08-.096.16-.198.164-.205.083-.106.166-.215c.139-.183.28-.372.42-.568.822-1.148 1.476-2.28 1.943-3.364.57-1.326.86-2.578.86-3.724 0-2.321-.696-4.023-2.069-5.058a5.174 5.174 0 00-1.751-.848 5.875 5.875 0 00-.412-.098l-.154-.028-.146-.023c-.072-.01-.14-.02-.205-.027l-.125-.012-.116-.01-.105-.005-.138-.005h-.04zM9.81 16.743l1.094.336c-.092.29-.14.599-.14.915 0 .766.28 1.486.79 2.028.511.542 1.19.84 1.911.84.722 0 1.4-.298 1.91-.84.334-.354.57-.785.692-1.255l.024-.094 1.094.336a4.232 4.232 0 01-.182.572c-.194.486-.47.922-.823 1.296a3.822 3.822 0 01-1.22.873c-.474.213-.977.32-1.495.32a3.625 3.625 0 01-1.495-.32 3.822 3.822 0 01-1.22-.873 4.085 4.085 0 01-.823-1.296 4.269 4.269 0 01-.302-1.587c0-.386.05-.765.15-1.13l.035-.121zm6.134-1.795c.43 0 .778.37.778.826 0 .457-.348.827-.778.827-.43 0-.779-.37-.779-.827 0-.456.349-.826.779-.826zm-2.479-1.03v1.208l-.086.001c-.6.02-1.166.247-1.625.648l-.069.061-.75-.91a3.795 3.795 0 011.035-.688c.438-.197.9-.304 1.376-.319l.119-.002z"/>
    </g>
    <g transform="translate(76 152)">
      <rect width="26.928" height="42.768" fill="#FFF" rx="1.901"/>
      <path fill="#FFF" fill-rule="nonzero" d="M15.84 42.768v7.92h-4.752v-7.92z"/>
      <path fill="url(#d)" d="M0 0h23.76v38.016H0z" transform="translate(1.584 1.584)"/>
      <path fill="#FFF" d="M13.38 11.089l.084-.001.13.002.158.006.119.007.129.01.138.014c.31.034.683.096 1.089.208a6.278 6.278 0 012.125 1.032 5.91 5.91 0 011.806 2.261c.492 1.059.741 2.332.741 3.783 0 1.324-.326 2.75-.968 4.238-.504 1.168-1.205 2.38-2.081 3.601l-.147.203-.109.146-.116.156-.19.248-.137.174-.144.182-.153.188-.16.193c-.026.033-.054.066-.082.099l-.17.201-.179.206-.185.21-.095.106-.196.215-.255.273-.222.23-.216.22-.207.201-.423.395-.427-.398-.103-.1-.19-.188-.161-.165-.187-.195-.255-.273-.18-.198-.198-.221-.14-.16-.147-.17-.151-.178-.237-.285-.162-.2a27.26 27.26 0 01-.082-.104l-.167-.212a26.16 26.16 0 01-.255-.332l-.171-.23-.173-.237c-.876-1.221-1.577-2.433-2.08-3.6-.643-1.49-.969-2.915-.969-4.239 0-1.451.25-2.724.74-3.783a5.91 5.91 0 011.807-2.26 6.278 6.278 0 012.125-1.033 6.982 6.982 0 011.089-.208l.138-.014.13-.01.118-.007.108-.005.096-.002zm.12 1.208h-.114l-.094.003-.106.005-.117.008-.063.006-.133.014c-.254.03-.556.081-.886.172a5.174 5.174 0 00-1.751.848c-1.373 1.035-2.069 2.737-2.069 5.058 0 1.146.29 2.398.86 3.724.467 1.084 1.121 2.216 1.944 3.364.196.274.392.536.585.783l.165.21.162.201.16.194.156.187.153.18.148.17.143.163.205.227.19.207.175.186.251.26.144-.148.163-.172.18-.193.13-.14.134-.15.213-.24.148-.17.153-.18.156-.187.08-.096.16-.198.164-.205.083-.106.166-.215c.139-.183.28-.372.42-.568.822-1.148 1.476-2.28 1.943-3.364.57-1.326.86-2.578.86-3.724 0-2.321-.696-4.023-2.069-5.058a5.174 5.174 0 00-1.751-.848 5.875 5.875 0 00-.412-.098l-.154-.028-.146-.023c-.072-.01-.14-.02-.205-.027l-.125-.012-.116-.01-.105-.005-.138-.005h-.04zM9.81 16.743l1.094.336c-.092.29-.14.599-.14.915 0 .766.28 1.486.79 2.028.511.542 1.19.84 1.911.84.722 0 1.4-.298 1.91-.84.334-.354.57-.785.692-1.255l.024-.094 1.094.336a4.232 4.232 0 01-.182.572c-.194.486-.47.922-.823 1.296a3.822 3.822 0 01-1.22.873c-.474.213-.977.32-1.495.32a3.625 3.625 0 01-1.495-.32 3.822 3.822 0 01-1.22-.873 4.085 4.085 0 01-.823-1.296 4.269 4.269 0 01-.302-1.587c0-.386.05-.765.15-1.13l.035-.121zm6.134-1.795c.43 0 .778.37.778.826 0 .457-.348.827-.778.827-.43 0-.779-.37-.779-.827 0-.456.349-.826.779-.826zm-2.479-1.03v1.208l-.086.001c-.6.02-1.166.247-1.625.648l-.069.061-.75-.91a3.795 3.795 0 011.035-.688c.438-.197.9-.304 1.376-.319l.119-.002z"/>
    </g>
    <g transform="translate(169 161)">
      <rect width="26.928" height="42.768" fill="#FFF" rx="1.901"/>
      <path fill="#FFF" fill-rule="nonzero" d="M15.84 42.768v7.92h-4.752v-7.92z"/>
      <path fill="url(#d)" d="M0 0h23.76v38.016H0z" transform="translate(1.584 1.584)"/>
      <path fill="#FFF" d="M13.38 11.089l.084-.001.13.002.158.006.119.007.129.01.138.014c.31.034.683.096 1.089.208a6.278 6.278 0 012.125 1.032 5.91 5.91 0 011.806 2.261c.492 1.059.741 2.332.741 3.783 0 1.324-.326 2.75-.968 4.238-.504 1.168-1.205 2.38-2.081 3.601l-.147.203-.109.146-.116.156-.19.248-.137.174-.144.182-.153.188-.16.193c-.026.033-.054.066-.082.099l-.17.201-.179.206-.185.21-.095.106-.196.215-.255.273-.222.23-.216.22-.207.201-.423.395-.427-.398-.103-.1-.19-.188-.161-.165-.187-.195-.255-.273-.18-.198-.198-.221-.14-.16-.147-.17-.151-.178-.237-.285-.162-.2a27.26 27.26 0 01-.082-.104l-.167-.212a26.16 26.16 0 01-.255-.332l-.171-.23-.173-.237c-.876-1.221-1.577-2.433-2.08-3.6-.643-1.49-.969-2.915-.969-4.239 0-1.451.25-2.724.74-3.783a5.91 5.91 0 011.807-2.26 6.278 6.278 0 012.125-1.033 6.982 6.982 0 011.089-.208l.138-.014.13-.01.118-.007.108-.005.096-.002zm.12 1.208h-.114l-.094.003-.106.005-.117.008-.063.006-.133.014c-.254.03-.556.081-.886.172a5.174 5.174 0 00-1.751.848c-1.373 1.035-2.069 2.737-2.069 5.058 0 1.146.29 2.398.86 3.724.467 1.084 1.121 2.216 1.944 3.364.196.274.392.536.585.783l.165.21.162.201.16.194.156.187.153.18.148.17.143.163.205.227.19.207.175.186.251.26.144-.148.163-.172.18-.193.13-.14.134-.15.213-.24.148-.17.153-.18.156-.187.08-.096.16-.198.164-.205.083-.106.166-.215c.139-.183.28-.372.42-.568.822-1.148 1.476-2.28 1.943-3.364.57-1.326.86-2.578.86-3.724 0-2.321-.696-4.023-2.069-5.058a5.174 5.174 0 00-1.751-.848 5.875 5.875 0 00-.412-.098l-.154-.028-.146-.023c-.072-.01-.14-.02-.205-.027l-.125-.012-.116-.01-.105-.005-.138-.005h-.04zM9.81 16.743l1.094.336c-.092.29-.14.599-.14.915 0 .766.28 1.486.79 2.028.511.542 1.19.84 1.911.84.722 0 1.4-.298 1.91-.84.334-.354.57-.785.692-1.255l.024-.094 1.094.336a4.232 4.232 0 01-.182.572c-.194.486-.47.922-.823 1.296a3.822 3.822 0 01-1.22.873c-.474.213-.977.32-1.495.32a3.625 3.625 0 01-1.495-.32 3.822 3.822 0 01-1.22-.873 4.085 4.085 0 01-.823-1.296 4.269 4.269 0 01-.302-1.587c0-.386.05-.765.15-1.13l.035-.121zm6.134-1.795c.43 0 .778.37.778.826 0 .457-.348.827-.778.827-.43 0-.779-.37-.779-.827 0-.456.349-.826.779-.826zm-2.479-1.03v1.208l-.086.001c-.6.02-1.166.247-1.625.648l-.069.061-.75-.91a3.795 3.795 0 011.035-.688c.438-.197.9-.304 1.376-.319l.119-.002z"/>
    </g>
    <g transform="translate(113 127)">
      <rect width="26.928" height="42.768" fill="#FFF" rx="1.901"/>
      <path fill="#FFF" fill-rule="nonzero" d="M15.84 42.768v7.92h-4.752v-7.92z"/>
      <path fill="url(#d)" d="M0 0h23.76v38.016H0z" transform="translate(1.584 1.584)"/>
      <path fill="#FFF" d="M13.38 11.089l.084-.001.13.002.158.006.119.007.129.01.138.014c.31.034.683.096 1.089.208a6.278 6.278 0 012.125 1.032 5.91 5.91 0 011.806 2.261c.492 1.059.741 2.332.741 3.783 0 1.324-.326 2.75-.968 4.238-.504 1.168-1.205 2.38-2.081 3.601l-.147.203-.109.146-.116.156-.19.248-.137.174-.144.182-.153.188-.16.193c-.026.033-.054.066-.082.099l-.17.201-.179.206-.185.21-.095.106-.196.215-.255.273-.222.23-.216.22-.207.201-.423.395-.427-.398-.103-.1-.19-.188-.161-.165-.187-.195-.255-.273-.18-.198-.198-.221-.14-.16-.147-.17-.151-.178-.237-.285-.162-.2a27.26 27.26 0 01-.082-.104l-.167-.212a26.16 26.16 0 01-.255-.332l-.171-.23-.173-.237c-.876-1.221-1.577-2.433-2.08-3.6-.643-1.49-.969-2.915-.969-4.239 0-1.451.25-2.724.74-3.783a5.91 5.91 0 011.807-2.26 6.278 6.278 0 012.125-1.033 6.982 6.982 0 011.089-.208l.138-.014.13-.01.118-.007.108-.005.096-.002zm.12 1.208h-.114l-.094.003-.106.005-.117.008-.063.006-.133.014c-.254.03-.556.081-.886.172a5.174 5.174 0 00-1.751.848c-1.373 1.035-2.069 2.737-2.069 5.058 0 1.146.29 2.398.86 3.724.467 1.084 1.121 2.216 1.944 3.364.196.274.392.536.585.783l.165.21.162.201.16.194.156.187.153.18.148.17.143.163.205.227.19.207.175.186.251.26.144-.148.163-.172.18-.193.13-.14.134-.15.213-.24.148-.17.153-.18.156-.187.08-.096.16-.198.164-.205.083-.106.166-.215c.139-.183.28-.372.42-.568.822-1.148 1.476-2.28 1.943-3.364.57-1.326.86-2.578.86-3.724 0-2.321-.696-4.023-2.069-5.058a5.174 5.174 0 00-1.751-.848 5.875 5.875 0 00-.412-.098l-.154-.028-.146-.023c-.072-.01-.14-.02-.205-.027l-.125-.012-.116-.01-.105-.005-.138-.005h-.04zM9.81 16.743l1.094.336c-.092.29-.14.599-.14.915 0 .766.28 1.486.79 2.028.511.542 1.19.84 1.911.84.722 0 1.4-.298 1.91-.84.334-.354.57-.785.692-1.255l.024-.094 1.094.336a4.232 4.232 0 01-.182.572c-.194.486-.47.922-.823 1.296a3.822 3.822 0 01-1.22.873c-.474.213-.977.32-1.495.32a3.625 3.625 0 01-1.495-.32 3.822 3.822 0 01-1.22-.873 4.085 4.085 0 01-.823-1.296 4.269 4.269 0 01-.302-1.587c0-.386.05-.765.15-1.13l.035-.121zm6.134-1.795c.43 0 .778.37.778.826 0 .457-.348.827-.778.827-.43 0-.779-.37-.779-.827 0-.456.349-.826.779-.826zm-2.479-1.03v1.208l-.086.001c-.6.02-1.166.247-1.625.648l-.069.061-.75-.91a3.795 3.795 0 011.035-.688c.438-.197.9-.304 1.376-.319l.119-.002z"/>
    </g>
    <g transform="translate(96.729 169.496)">
      <mask id="g" fill="#fff">
        <use xlink:href="#e"/>
      </mask>
      <use fill="#F2F5F9" xlink:href="#e"/>
      <path fill="url(#f)" d="M72.343 3.878v49.223H5.221V3.878z" mask="url(#g)"/>
      <path fill="#CCD9E7" d="M78.591-14.588L81.292 2.49c0 2.415-2.115 4.372-4.723 4.372-.944 0-1.839-.429-2.685-1.286a2.864 2.864 0 00-4.077 0c-.847.857-1.742 1.286-2.685 1.286-.943 0-1.838-.429-2.685-1.286a2.864 2.864 0 00-4.077 0c-.846.857-1.741 1.286-2.685 1.286-.943 0-1.838-.429-2.685-1.286a2.864 2.864 0 00-4.077 0c-.846.857-1.741 1.286-2.685 1.286-.943 0-1.838-.429-2.685-1.286a2.864 2.864 0 00-4.076 0c-.847.857-1.742 1.286-2.685 1.286-.944 0-1.839-.429-2.685-1.286a2.864 2.864 0 00-4.077 0c-.847.857-1.742 1.286-2.685 1.286-.944 0-1.839-.429-2.685-1.286a2.864 2.864 0 00-4.077 0c-.847.857-1.742 1.286-2.685 1.286-.943 0-1.838-.429-2.685-1.286a2.864 2.864 0 00-4.077 0c-.846.857-1.741 1.286-2.685 1.286-.94 0-1.84-.428-2.702-1.286a2.864 2.864 0 00-4.04 0C2.836 6.431 1.935 6.86.994 6.86c-2.554 0-4.635-1.876-4.72-4.221l-.003-.15 2.7-17.078a2.864 2.864 0 012.83-2.416h73.962a2.864 2.864 0 012.828 2.416z" mask="url(#g)"/>
    </g>
    <use fill="#F2F5F9" transform="translate(93 151)" xlink:href="#h"/>
    <g transform="translate(122.832 179.34)">
      <rect width="25.357" height="40.273" fill="#FFF" rx="1.79"/>
      <path fill="#FFF" fill-rule="nonzero" d="M14.916 40.273v2.983h-4.475v-2.983z"/>
      <path fill="url(#i)" d="M0 0h22.374v35.798H0z" transform="translate(1.492 1.492)"/>
      <path fill="#FFF" d="M12.6 10.442h.202l.148.006.112.007.121.01.13.013c.292.032.644.09 1.026.196a5.912 5.912 0 012 .972 5.565 5.565 0 011.702 2.129c.463.997.697 2.195.697 3.562 0 1.247-.307 2.59-.912 3.991-.474 1.1-1.134 2.24-1.96 3.39l-.138.192-.102.138-.11.146-.179.233-.128.165-.136.17-.143.178-.15.182-.078.093-.161.19c-.055.064-.11.128-.168.193l-.174.198-.09.1-.184.202-.24.257-.21.217-.203.206-.195.19-.398.372-.402-.375-.098-.094-.178-.177-.152-.155-.176-.184-.24-.257-.17-.186-.186-.208-.132-.151-.138-.16-.143-.168-.222-.268-.153-.189a25.673 25.673 0 01-.078-.097l-.157-.2c-.08-.101-.16-.206-.24-.312l-.161-.217-.163-.223c-.825-1.15-1.485-2.291-1.96-3.39-.604-1.403-.911-2.745-.911-3.992 0-1.367.235-2.565.698-3.562a5.565 5.565 0 011.7-2.13 5.912 5.912 0 012.002-.97 6.575 6.575 0 011.025-.197l.13-.013.122-.01.111-.007.102-.004.09-.002zm.113 1.138h-.108l-.088.003-.1.004-.11.008a5.24 5.24 0 00-.06.005l-.125.013a5.551 5.551 0 00-.834.163c-.619.17-1.174.439-1.65.798-1.292.975-1.947 2.577-1.947 4.763 0 1.079.272 2.258.81 3.507.44 1.02 1.055 2.087 1.83 3.168.185.258.37.504.551.737l.155.197.153.19.15.183.148.176.143.169.14.16.135.153.192.215.18.195.164.175.237.244.135-.14.154-.16.17-.182.12-.132.128-.141.2-.227.14-.16.144-.169.147-.176.075-.09.151-.187.154-.194.078-.099.156-.203c.131-.172.263-.35.395-.534.775-1.081 1.39-2.147 1.83-3.168.538-1.249.81-2.428.81-3.507 0-2.186-.655-3.788-1.947-4.763a4.872 4.872 0 00-1.65-.798 5.532 5.532 0 00-.388-.092l-.144-.027-.138-.022a5.477 5.477 0 00-.193-.025l-.118-.012-.11-.008-.098-.006-.13-.004h-.037zm-3.477 4.186l1.03.317a2.858 2.858 0 00-.131.861c0 .722.264 1.4.745 1.91.48.51 1.12.791 1.799.791.68 0 1.318-.28 1.798-.79.314-.335.536-.74.652-1.183l.022-.089 1.03.317a3.985 3.985 0 01-.171.539 3.847 3.847 0 01-.775 1.22 3.6 3.6 0 01-1.149.822c-.446.2-.92.302-1.407.302-.488 0-.962-.101-1.408-.302a3.6 3.6 0 01-1.15-.822 3.847 3.847 0 01-.774-1.22 4.02 4.02 0 01-.284-1.495c0-.363.047-.72.14-1.064l.033-.114zm5.777-1.69c.404 0 .733.348.733.778 0 .43-.329.779-.733.779-.405 0-.734-.349-.734-.779 0-.43.329-.778.734-.778zm-2.334-.97v1.138h-.081a2.438 2.438 0 00-1.531.61l-.064.058-.706-.856c.29-.27.617-.488.974-.649a3.412 3.412 0 011.295-.3l.113-.002z"/>
    </g>
  </g>
</svg>
