<?xml version="1.0" encoding="UTF-8"?>
<svg width="361px" height="78px" viewBox="0 0 361 78" version="1.1" xmlns="http://www.w3.org/2000/svg" xmlns:xlink="http://www.w3.org/1999/xlink">
    <title>Group 44</title>
    <g id="Landingpage" stroke="none" stroke-width="1" fill="none" fill-rule="evenodd">
        <g id="Lucky-Local-Landingpage" transform="translate(-532.000000, -4763.000000)">
            <g id="App" transform="translate(265.000000, 4242.000000)">
                <g id="Group-44" transform="translate(267.000000, 521.000000)">
                    <rect id="Rectangle-Copy-44" fill="#F2F5F9" x="0" y="0" width="361" height="78" rx="4"></rect>
                    <g id="Group-12" transform="translate(27.000000, 28.000000)">
                        <text id="Start" font-family="Rubik-Regular, Rubik" font-size="16" font-weight="normal" letter-spacing="0.8" fill="#7F9FC2">
                            <tspan x="34" y="17">Start</tspan>
                        </text>
                        <g id="Group">
                            <circle id="Oval" stroke="#7F9FC2" stroke-width="2" cx="12" cy="12" r="11"></circle>
                            <path d="M9,14.6683345 L9,9.72317968 C9,9.17089493 9.44771525,8.72317968 10,8.72317968 C10.1740269,8.72317968 10.3450412,8.768595 10.4961389,8.85493654 L14.5686194,11.1820682 C15.0481368,11.4560782 15.2147336,12.0669329 14.9407236,12.5464503 C14.8609056,12.6861317 14.7485653,12.8044937 14.613238,12.8914898 L10.5407576,15.509513 C10.0761875,15.8081651 9.4574737,15.6736621 9.15882152,15.2090921 C9.05513038,15.0477948 9,14.8600861 9,14.6683345 Z" id="Path-7-Copy" fill="#7F9FC2"></path>
                        </g>
                    </g>
                    <g id="Group-2" transform="translate(131.000000, 28.000000)">
                        <text id="End" font-family="Rubik-Regular, Rubik" font-size="16" font-weight="normal" letter-spacing="0.8" fill="#7F9FC2">
                            <tspan x="34" y="17">End</tspan>
                        </text>
                        <g id="Group">
                            <circle id="Oval" stroke="#7F9FC2" stroke-width="2" cx="12" cy="12" r="11"></circle>
                            <rect id="Rectangle" fill="#7F9FC2" x="9" y="9" width="6" height="6" rx="1"></rect>
                        </g>
                    </g>
                    <g id="Group" transform="translate(225.000000, 28.000000)" fill="#7F9FC2">
                        <text id="Schedule" font-family="Rubik-Regular, Rubik" font-size="16" font-weight="normal" letter-spacing="0.8">
                            <tspan x="34" y="17">Schedule</tspan>
                        </text>
                        <g fill-rule="nonzero" id="Shape">
                            <g>
                                <path d="M15,0 C15.5128358,0 15.9355072,0.38604019 15.9932723,0.883378875 L16,0.999 L18,1 C19.1045695,1 20,1.8954305 20,3 L20.0010455,9.86559935 L19.9560942,9.84202375 C22.3589331,11.0918608 24,13.6042845 24,16.5 C24,20.6421356 20.6421356,24 16.5,24 C13.3440871,24 10.6434429,22.0507635 9.53632839,19.2905519 L9.42716214,19.0011254 L2,19 C0.8954305,19 2.48689958e-14,18.1045695 2.48689958e-14,17 L2.48689958e-14,3 C2.48689958e-14,1.8954305 0.8954305,1 2,1 L4,0.999 L4.00672773,0.883378875 C4.06449284,0.38604019 4.48716416,0 5,0 C5.51283584,0 5.93550716,0.38604019 5.99327227,0.883378875 L6,0.999 L14,0.999 L14.0067277,0.883378875 C14.0644928,0.38604019 14.4871642,0 15,0 Z M16.5,11 C13.4624339,11 11,13.4624339 11,16.5 C11,19.5375661 13.4624339,22 16.5,22 C19.5375661,22 22,19.5375661 22,16.5 C22,13.4624339 19.5375661,11 16.5,11 Z M16.5,12.5 C17.0128358,12.5 17.4355072,12.8860402 17.4932723,13.3833789 L17.5,13.5 L17.5,16.5 L19,16.5 C19.5128358,16.5 19.9355072,16.8860402 19.9932723,17.3833789 L20,17.5 C20,18.0128358 19.6139598,18.4355072 19.1166211,18.4932723 L19,18.5 L16.5,18.5 C15.9871642,18.5 15.5644928,18.1139598 15.5067277,17.6166211 L15.5,17.5 L15.5,13.5 C15.5,12.9477153 15.9477153,12.5 16.5,12.5 Z M18,7 L2,7 L2,17 L9.01644104,17.0005886 L9.01533667,16.9835365 C9.00516396,16.8236673 9,16.6624367 9,16.5 C9,12.3578644 12.3578644,9 16.5,9 C16.9221935,9 17.3362393,9.03488492 17.7394119,9.10192952 L18.0005978,9.15014855 L18,7 Z M4,2.999 L2,3 L2,5 L18,5 L18,3 L16,3 C16,3.55228475 15.5522847,4 15,4 C14.4871642,4 14.0644928,3.61395981 14.0067277,3.11662113 L14,2.999 L6,3 C6,3.55228475 5.55228475,4 5,4 C4.48716416,4 4.06449284,3.61395981 4.00672773,3.11662113 L4,2.999 Z"></path>
                            </g>
                        </g>
                    </g>
                </g>
            </g>
        </g>
    </g>
</svg>