<?xml version="1.0" encoding="UTF-8"?>
<svg width="54px" height="54px" viewBox="0 0 54 54" version="1.1" xmlns="http://www.w3.org/2000/svg" xmlns:xlink="http://www.w3.org/1999/xlink">
    <title>Group 46</title>
    <g id="Landingpage" stroke="none" stroke-width="1" fill="none" fill-rule="evenodd">
        <g id="Lucky-Local-Website---Landingpage-(Mobile)" transform="translate(-310.000000, -4366.000000)">
            <g id="App-Teaser" transform="translate(0.000000, 3869.000000)">
                <g id="Group-10" transform="translate(0.000000, 236.000000)">
                    <g id="Group-46" transform="translate(310.000000, 261.000000)">
                        <g id="Group-43-Copy" fill="#FFFFFF">
                            <rect id="Rectangle-Copy-38" x="0" y="0" width="53.508" height="53.508" rx="26.754"></rect>
                        </g>
                        <g id="Group" transform="translate(0.700000, 2.100000)">
                            <g id="Icon-/-plus" transform="translate(11.600400, 11.600400)">
                                <path d="M13.2496,3.3124 C16.7977296,3.3124 19.7906074,5.95445929 20.2306987,9.47518982 L21.5306,19.8744 L21.5306,19.8744 L4.9686,19.8744 L6.26850127,9.47518982 C6.70859259,5.95445929 9.70147037,3.3124 13.2496,3.3124 Z" id="Rectangle" stroke="#003F86" stroke-width="1.6562" stroke-linejoin="round"></path>
                                <path d="M13.2496,0.8281 C14.164294,0.8281 14.9058,1.569606 14.9058,2.4843 C14.9058,2.78612809 14.8250612,3.06909862 14.684003,3.3127922 C14.3975824,2.81718478 13.8624659,2.4843 13.2496,2.4843 C12.6367341,2.4843 12.1016176,2.81718478 11.815197,3.3120078 C11.6741388,3.06909862 11.5934,2.78612809 11.5934,2.4843 C11.5934,1.569606 12.334906,0.8281 13.2496,0.8281 Z" id="Combined-Shape" fill="#003F86"></path>
                                <line x1="2.4843" y1="19.8744" x2="24.0149" y2="19.8744" id="Path-4" stroke="#003F86" stroke-width="1.6562" stroke-linecap="round"></line>
                                <path d="M16.1167369,22.7855603 C16.023818,23.4150716 15.7285045,23.9786813 15.2990429,24.4081429 C14.7745448,24.9326411 14.0499573,25.25705 13.2496,25.25705 C12.4790634,25.25705 11.7787426,24.9563812 11.2596061,24.4659271 C10.8362419,24.0659539 10.5332668,23.5398036 10.4110646,22.9475751 L10.4110646,22.9475751 Z" id="Combined-Shape" stroke="#003F86" stroke-width="0.8281" fill="#003F86"></path>
                            </g>
                        </g>
                        <circle id="Oval" fill="#E6294D" cx="37.1" cy="20.3" r="8.4"></circle>
                        <polygon id="1" fill="#FFFFFF" fill-rule="nonzero" points="38.242778 23.2 38.242778 16.3731436 36.9608792 16.3731436 34.814444 17.8935352 35.5796084 19.0859992 36.6130772 18.3208348 36.6130772 23.2"></polygon>
                    </g>
                </g>
            </g>
        </g>
    </g>
</svg>