<?xml version="1.0" encoding="UTF-8"?>
<svg width="92px" height="92px" viewBox="0 0 92 92" version="1.1" xmlns="http://www.w3.org/2000/svg" xmlns:xlink="http://www.w3.org/1999/xlink">
    <title>Group 43</title>
    <g id="Landingpage" stroke="none" stroke-width="1" fill="none" fill-rule="evenodd">
        <g id="Lucky-Local-Landingpage" transform="translate(-900.000000, -4605.000000)">
            <g id="App" transform="translate(265.000000, 4242.000000)">
                <g id="Group-43" transform="translate(635.000000, 363.000000)">
                    <rect id="Rectangle-Copy-38" fill="#FFFFFF" x="0" y="0" width="91.35126" height="91.35126" rx="45.67563"></rect>
                    <g id="Group-4" transform="translate(24.570000, 24.570000)" fill="#003F86">
                        <g id="icon-/-24px-/-edit" transform="translate(0.665377, 0.665377)">
                            <path d="M26.4021453,3.22678711 C28.802256,0.828590789 32.6104012,0.654181984 35.2125104,2.75765918 L35.4528451,2.96153531 L35.7341099,3.22678711 L38.2342912,5.72497427 C40.5147798,8.00364393 40.7932888,11.564025 38.9314885,14.2190785 L38.7446281,14.4731196 L38.4889313,14.7815877 L38.2342912,15.0524183 L18.2501898,35.0205804 C16.8375446,36.4320989 15.0945163,37.4632786 13.1590271,38.0291674 L12.7090221,38.1514588 L12.168091,38.2730721 L4.72967066,39.7595695 C3.32641711,40.0399964 1.96152445,39.1297655 1.68109759,37.726512 C1.63212532,37.4814552 1.61894769,37.2310392 1.6416031,36.9830373 L1.67620428,36.7361281 L3.0519829,29.4793071 C3.39174607,27.687158 4.13770331,26.0054647 5.25808967,24.5188553 L5.54596848,24.1513161 L5.94103364,23.6918003 L6.33060563,23.2823177 L26.4021453,3.22678711 Z M5.4708009,30.6223171 L4.22191291,37.2187542 L10.7604375,35.9119537 L5.4708009,30.6223171 Z M24.7974721,8.49212561 L8.18562354,25.0909985 L7.86520223,25.425728 L7.53592114,25.8104276 C7.03821194,26.4224035 6.62385604,27.0845511 6.29826139,27.7845726 L13.621782,35.1084799 C14.5298795,34.704479 15.3700113,34.1566245 16.1085637,33.4836977 L16.4187691,33.1876978 L32.961883,16.6565365 L24.7974721,8.49212561 Z M33.5370712,4.73569558 C32.0250553,3.55097264 29.8656473,3.61023318 28.4182125,4.88632452 L28.233566,5.05966972 L26.6306427,6.66025049 L34.7950536,14.8246614 L36.3730336,13.2503527 L36.5398165,13.0766695 L36.7149095,12.8630009 C37.9130971,11.308268 37.839979,9.17193253 36.5746659,7.7404667 L36.4028705,7.55785688 L33.9295364,5.08573163 L33.7212712,4.88931875 L33.5370712,4.73569558 Z" id="Shape"></path>
                        </g>
                    </g>
                </g>
            </g>
        </g>
    </g>
</svg>