<svg xmlns="http://www.w3.org/2000/svg" xmlns:xlink="http://www.w3.org/1999/xlink" viewBox="0 0 117 137">
  <defs>
    <path id="a" d="M102 0v74.476a3.6 3.6 0 01-3.608 3.6L63 78l-9.089 12.497a3.6 3.6 0 01-5.822 0L39 78l-35.392.076A3.6 3.6 0 010 74.476V0h102z"/>
    <path id="d" d="M112.335 3.364L116 26.138c0 3.237-2.885 5.862-6.444 5.862-1.277 0-2.489-.566-3.635-1.697a4 4 0 00-5.62 0C99.156 31.434 97.944 32 96.668 32c-1.277 0-2.489-.566-3.635-1.697a4 4 0 00-5.62 0C86.267 31.434 85.055 32 83.779 32c-1.277 0-2.489-.566-3.635-1.697a4 4 0 00-5.62 0C73.378 31.434 72.167 32 70.89 32c-1.277 0-2.488-.566-3.635-1.697a4 4 0 00-5.619 0C60.488 31.434 59.277 32 58 32c-1.277 0-2.488-.566-3.635-1.697a4 4 0 00-5.619 0C47.6 31.434 46.388 32 45.111 32c-1.277 0-2.488-.566-3.635-1.697a4 4 0 00-5.619 0C34.711 31.434 33.5 32 32.222 32c-1.276 0-2.488-.566-3.635-1.697a4 4 0 00-5.619 0C21.822 31.434 20.61 32 19.333 32c-1.272 0-2.491-.566-3.658-1.697a4 4 0 00-5.569-.002C8.938 31.434 7.717 32 6.444 32 2.96 32 .121 29.484.004 26.34L0 26.137 3.665 3.364A4 4 0 017.615 0h100.77a4 4 0 013.95 3.364z"/>
    <linearGradient id="b" x1="4.625%" x2="100%" y1="22.581%" y2="73.728%">
      <stop offset="0%" stop-color="#7F9FC2"/>
      <stop offset="100%" stop-color="#3A70AD"/>
    </linearGradient>
  </defs>
  <g fill="none" fill-rule="evenodd">
    <g transform="translate(7.678 45)">
      <mask id="c" fill="#fff">
        <use xlink:href="#a"/>
      </mask>
      <use fill="#003F86" xlink:href="#a"/>
      <path fill="url(#b)" d="M96 10v62H6V10z" mask="url(#c)"/>
      <path fill="#003273" d="M105.322-16.617L109 6.955c0 3.338-2.885 6.045-6.444 6.045-1.266 0-2.468-.573-3.606-1.72a4 4 0 00-5.678 0c-1.138 1.147-2.34 1.72-3.605 1.72-1.266 0-2.468-.573-3.605-1.72a4 4 0 00-5.68 0C79.246 12.427 78.044 13 76.779 13c-1.266 0-2.468-.573-3.605-1.72a4 4 0 00-5.679 0c-1.138 1.147-2.34 1.72-3.605 1.72-1.266 0-2.467-.573-3.605-1.72a4 4 0 00-5.679 0C53.467 12.427 52.265 13 51 13c-1.266 0-2.467-.573-3.605-1.72a4 4 0 00-5.679 0c-1.138 1.147-2.34 1.72-3.605 1.72-1.265 0-2.467-.573-3.605-1.72a4 4 0 00-5.679 0C27.69 12.427 26.487 13 25.222 13c-1.265 0-2.467-.573-3.605-1.72a4 4 0 00-5.679 0c-1.137 1.147-2.34 1.72-3.605 1.72-1.26 0-2.47-.573-3.627-1.72a4 4 0 00-5.63-.002C1.916 12.426.706 13-.556 13c-3.485 0-6.323-2.595-6.44-5.838L-7 6.955l3.678-23.572A4 4 0 01.631-20h100.738a4 4 0 013.953 3.383z" mask="url(#c)"/>
    </g>
    <g transform="translate(44.678 65)">
      <rect width="28" height="44" fill="#FFF" rx="2"/>
      <path fill="#FFF" fill-rule="nonzero" d="M16 44v8h-4v-8z"/>
      <path fill="#CCD9E7" d="M2 2h24v38H2z"/>
    </g>
    <g transform="translate(.678 20)">
      <mask id="e" fill="#fff">
        <use xlink:href="#d"/>
      </mask>
      <use fill="#003F86" xlink:href="#d"/>
      <path fill="#00326F" d="M58-17c11.046 0 20 9.402 20 21s-8.954 21-20 21-20-9.402-20-21 8.954-21 20-21z" mask="url(#e)"/>
    </g>
    <path fill="#003F86" d="M58.678 0c11.046 0 20 8.954 20 20s-8.954 20-20 20c-11.045 0-20-8.954-20-20s8.955-20 20-20z"/>
    <g stroke="#FFF" stroke-width="2">
      <path d="M65.678 21a.997.997 0 011 1h0v5a5.981 5.981 0 01-1.757 4.243A5.981 5.981 0 0160.678 33h0-4a5.981 5.981 0 01-4.242-1.757A5.981 5.981 0 0150.678 27h0v-5a.997.997 0 011-1h0z"/>
      <path d="M66.678 23.5h4.091c.502 0 .91.746.91 1.667V26c0 1.38-.611 2.5-1.364 2.5h-3.637"/>
      <path stroke-linecap="round" d="M53.821 11.5l-.441.772a1.852 1.852 0 00.298 2.228c.604.604.78 1.515.443 2.3l-.3.7h0M58.821 14.5l-.441.772a1.852 1.852 0 00.298 2.228c.604.604.78 1.515.443 2.3l-.3.7h0M63.393 9.5l-.59.802A1.953 1.953 0 0063.179 13a2.226 2.226 0 01.583 2.831l-.368.669h0"/>
    </g>
  </g>
</svg>
