<svg xmlns="http://www.w3.org/2000/svg" viewBox="0 0 187 346">
  <g fill="#FFF" fill-rule="evenodd">
    <path fill-rule="nonzero" d="M21.644 75.147c7.82 0 12.444-4.93 12.444-12.036 0-7.14-4.896-12.104-12.546-12.104h-8.364v24.14h8.466zm-.374-5.066h-2.55V56.073h2.958c3.706 0 6.46 2.992 6.46 7.038 0 3.91-2.72 6.97-6.868 6.97zm25.048 5.372c3.774 0 6.086-1.258 7.48-2.992l-3.06-3.128a5.246 5.246 0 01-3.876 1.802c-2.04 0-3.638-.986-3.978-2.89h11.322c.034-.34.102-1.122.102-1.598 0-4.93-3.434-8.432-8.126-8.432-5.032 0-8.568 3.57-8.568 8.602 0 5.168 3.672 8.636 8.704 8.636zm2.822-10.37h-6.222c.34-1.666 1.564-2.652 3.196-2.652 1.598 0 2.686 1.02 3.026 2.652zm12.026-8.636c1.836 0 3.196-1.326 3.196-3.06 0-1.666-1.36-2.992-3.196-2.992s-3.162 1.36-3.162 2.992c0 1.734 1.326 3.06 3.162 3.06zm2.652 18.7V58.52h-5.304v16.626h5.304zm10.36 0v-8.364c0-2.584 1.225-3.842 3.06-3.842 1.735 0 2.653.782 2.653 3.536v8.67h5.304v-9.962c0-5.27-2.516-6.97-5.95-6.97-1.938 0-3.706.748-4.998 2.244h-.068V58.52h-5.304v16.626h5.304zm32.825.306c4.012 0 8.874-2.04 8.874-7.718 0-4.658-3.264-5.746-7.514-7.378-2.618-1.02-3.502-1.632-3.468-2.788 0-1.156.85-1.87 2.244-1.87 1.36 0 2.856.646 4.93 2.278l3.196-4.148c-2.312-1.972-5.202-3.196-8.364-3.128-4.488.068-7.922 3.094-7.922 7.106 0 4.76 3.672 6.494 7.344 7.752 2.72.918 3.57 1.496 3.57 2.822 0 1.088-.816 2.04-2.72 2.04-1.666 0-3.876-.85-5.712-2.856L98.13 71.61c2.584 2.652 5.78 3.842 8.874 3.842zm18.214 6.426v-8.33l.068-.034c1.088 1.258 2.55 1.938 4.454 1.938 4.59 0 7.854-3.468 7.854-8.602 0-5.1-3.264-8.636-7.582-8.636-1.87 0-3.536.714-4.726 2.074h-.068V58.52h-5.304v23.358h5.304zm3.468-11.118c-2.108 0-3.706-1.53-3.706-3.91 0-2.278 1.53-3.944 3.672-3.944 2.04 0 3.57 1.564 3.57 3.944 0 2.346-1.496 3.91-3.536 3.91zm21.173 4.692c5.236 0 8.976-3.502 8.976-8.602 0-5.134-3.74-8.636-8.976-8.636-5.372 0-9.01 3.57-9.01 8.636 0 5.032 3.638 8.602 9.01 8.602zm0-4.692c-2.108 0-3.638-1.7-3.638-3.91 0-2.278 1.496-3.91 3.638-3.91 2.074 0 3.604 1.598 3.604 3.91 0 2.278-1.598 3.91-3.604 3.91zm18.452 4.692c2.312 0 3.502-.476 4.658-1.122l-1.326-3.91a4.24 4.24 0 01-1.632.374c-1.02 0-1.258-.782-1.258-1.87v-6.12h4.012V58.52h-4.012v-5.882l-5.338.544v5.338h-1.87v4.284h1.87v7.106c0 3.774 2.04 5.542 4.896 5.542zM27.261 150.666c6.96 0 12.096-4.368 12.096-11.04 0-6.912-4.704-10.656-9.936-10.656-1.776 0-3.648.432-5.28 1.248l-.048-.048c1.776-3.84 5.28-6.288 11.136-7.968l-2.16-6.048c-11.088 2.112-17.712 10.992-17.712 21.024 0 8.16 4.944 13.488 11.904 13.488zm.144-6.816c-2.544 0-4.752-2.256-4.752-5.904v-.48c1.2-1.44 3.024-2.4 4.704-2.4 2.784 0 4.56 1.824 4.56 4.32 0 2.496-1.728 4.464-4.512 4.464zm29.986 6.384v-32.976H51.2l-10.368 7.344 3.696 5.76 4.992-3.696v23.568h7.872zm11.507.432c2.352 0 4.32-1.872 4.32-4.224 0-2.352-1.968-4.272-4.32-4.272-2.4 0-4.32 1.92-4.32 4.272 0 2.352 1.92 4.224 4.32 4.224zm22.642 0c8.064 0 13.152-6.624 13.152-16.944 0-10.56-5.28-16.896-13.152-16.896-8.016 0-13.104 6.72-13.104 16.896 0 10.608 5.232 16.944 13.104 16.944zm0-7.296c-3.36 0-5.088-3.888-5.088-9.648 0-6.48 2.064-9.6 5.088-9.6 3.408 0 5.088 3.84 5.088 9.6 0 6.576-2.016 9.648-5.088 9.648zm31.618 7.296c8.064 0 13.152-6.624 13.152-16.944 0-10.56-5.28-16.896-13.152-16.896-8.016 0-13.104 6.72-13.104 16.896 0 10.608 5.232 16.944 13.104 16.944zm0-7.296c-3.36 0-5.088-3.888-5.088-9.648 0-6.48 2.064-9.6 5.088-9.6 3.408 0 5.088 3.84 5.088 9.6 0 6.576-2.016 9.648-5.088 9.648zm31.619 7.296c8.064 0 13.152-6.624 13.152-16.944 0-10.56-5.28-16.896-13.152-16.896-8.016 0-13.104 6.72-13.104 16.896 0 10.608 5.232 16.944 13.104 16.944zm0-7.296c-3.36 0-5.088-3.888-5.088-9.648 0-6.48 2.064-9.6 5.088-9.6 3.408 0 5.088 3.84 5.088 9.6 0 6.576-2.016 9.648-5.088 9.648z"/>
    <path d="M92.61 219.203l.556-.006.556.006.429.012.472.02.514.03.554.04.59.055c.811.08 1.715.2 2.687.372l.742.14a34.97 34.97 0 011.952.447c3.816.992 7.261 2.568 10.24 4.684 3.725 2.647 6.654 6.1 8.707 10.264 2.369 4.805 3.57 10.582 3.57 17.17 0 6.008-1.57 12.48-4.666 19.237-2.43 5.301-5.804 10.8-10.03 16.345l-.636.826-.465.594-.758.952-.545.672-.876 1.06-.623.74-.653.763-.337.39-.698.795-.727.815-.755.833-.784.849-.812.863-.84.875-.665.681-.456.461-1.05 1.043-.91.881-1.121 1.056-.797.722-1.809 1.586-2.137-1.88-.837-.772-.922-.875-.74-.718-.83-.821-.676-.683-.765-.784-.855-.894-.923-.984-.648-.704-.671-.741-.693-.777-.353-.4-.72-.828-.366-.426-.741-.875-.753-.905c-.252-.307-.506-.618-.76-.935l-.769-.962c-.384-.488-.77-.986-1.157-1.493-4.226-5.545-7.6-11.044-10.03-16.345-3.096-6.757-4.667-13.229-4.667-19.237 0-6.588 1.202-12.365 3.57-17.17 2.054-4.164 4.983-7.617 8.707-10.264 2.98-2.116 6.425-3.692 10.24-4.684a34.974 34.974 0 011.953-.447l.741-.14a35.65 35.65 0 012.688-.372l.59-.054.554-.041.514-.03.472-.02.429-.012zm1.08 5.487l-.362-.006-.499.002-.597.017-.455.022-.245.015-.519.04-.274.024-.577.06a29.84 29.84 0 00-.93.122l-.66.104c-.788.133-1.635.309-2.522.54-3.168.823-6.008 2.117-8.442 3.846-6.614 4.7-9.968 12.425-9.968 22.961 0 5.199 1.395 10.886 4.145 16.902 2.25 4.922 5.401 10.06 9.366 15.273.23.303.46.602.691.898l.69.88.345.43.686.848.682.824.675.803.666.778.657.754.646.73.633.703.618.677.602.65.87.92.554.579 1.042 1.065.941.94.83.81.187.18.799-.774.915-.908 1.018-1.035.823-.856.575-.608.897-.963.618-.677.633-.704.645-.729.657-.754.667-.778.675-.803.681-.824.343-.421.688-.858.345-.437.69-.888.347-.452c3.964-5.213 7.116-10.351 9.366-15.273 2.75-6.016 4.145-11.703 4.145-16.902 0-10.536-3.354-18.261-9.969-22.961-2.433-1.73-5.274-3.023-8.441-3.846a29.868 29.868 0 00-2.522-.54l-.66-.104a29.84 29.84 0 00-.93-.122l-.577-.06-.54-.046a27.941 27.941 0 00-.254-.018l-.477-.027-.633-.023zm-18.14 20.174l5.271 1.526a13.041 13.041 0 00-.673 4.154c0 3.477 1.354 6.746 3.813 9.205a12.934 12.934 0 009.205 3.813c3.478 0 6.747-1.354 9.206-3.813a12.946 12.946 0 003.344-5.72l.104-.404 5.274 1.526a18.438 18.438 0 01-4.842 8.478 18.44 18.44 0 01-13.086 5.42 18.44 18.44 0 01-13.085-5.42 18.438 18.438 0 01-3.964-5.881 18.391 18.391 0 01-1.456-7.204c0-1.772.247-3.506.735-5.18l.153-.5zm29.562-8.147a3.752 3.752 0 110 7.504 3.752 3.752 0 010-7.504zm-11.946-4.678v5.486l-.382.006a12.91 12.91 0 00-7.907 2.972l-.287.246-3.615-4.128a18.41 18.41 0 014.987-3.127 18.372 18.372 0 016.706-1.449l.498-.006z"/>
    <path fill-rule="nonzero" d="M67.137 103.37c2.7 0 4.62-2.04 4.62-5.06 0-3-1.92-5.08-4.46-5.08-1.1 0-2.08.4-2.78 1.22h-.04v-5.98h-3.12v14.72h2.96v-1.04h.04c.64.82 1.58 1.22 2.78 1.22zm-.62-2.76c-1.24 0-2.18-.9-2.18-2.3 0-1.34.9-2.32 2.16-2.32 1.2 0 2.1.92 2.1 2.32 0 1.38-.88 2.3-2.08 2.3zm9.294-8.42c1.08 0 1.88-.78 1.88-1.8 0-.98-.8-1.76-1.88-1.76-1.08 0-1.86.8-1.86 1.76 0 1.02.78 1.8 1.86 1.8zm1.56 11v-9.78h-3.12v9.78h3.12zm6.195.18c2.68 0 3.98-1.32 3.98-3.14 0-1.92-1.18-2.48-3.34-3.22-.98-.34-1.34-.56-1.34-.86 0-.38.42-.54.78-.54.66 0 1.5.34 2.18 1.02l1.48-2.18c-1.14-.84-2.22-1.22-3.7-1.22-2.04 0-3.66 1.14-3.66 3.12 0 1.88 1.44 2.68 3.08 3.18 1.22.38 1.52.58 1.52.9 0 .36-.32.58-.94.58-.9 0-1.74-.36-2.56-1.1l-1.46 2.02c1.08.96 2.44 1.44 3.98 1.44zm19.608-.18v-2.48h-4.18v-.04l4.34-5.2v-2.06h-8.04v2.46h3.88v.06l-4.26 5.18v2.08h8.26zm5.875.18c1.08 0 2.06-.42 2.78-1.3l.04.02v1.1h3.14v-9.78h-3.14v4.84c0 1.58-.78 2.36-1.72 2.36-1.06 0-1.5-.6-1.5-2.18v-5.02h-3.12v5.8c0 3.08 1.46 4.16 3.52 4.16zM27.524 178.277v-4.9c0-1.54.72-2.28 1.7-2.28 1.04 0 1.42.92 1.42 2.2v4.98h3.12v-4.9c0-1.54.74-2.28 1.64-2.28 1.08 0 1.42.92 1.42 2.2v4.98h3.12v-5.7c0-3.08-1.4-4.26-3.46-4.26-1.36 0-2.52.48-3.3 1.46h-.04c-.58-1.02-1.6-1.46-2.84-1.46-1.02 0-2 .46-2.76 1.34h-.02v-1.16h-3.12v9.78h3.12zm19.295.18c1.18 0 2.06-.4 2.7-1.22l.04.02v1.02h2.98v-9.78h-3.14v1.02l-.04.02c-.68-.8-1.66-1.22-2.7-1.22-2.52 0-4.46 2.08-4.46 5.08 0 3.02 1.94 5.06 4.62 5.06zm.66-2.76c-1.24 0-2.1-.92-2.1-2.3 0-1.4.9-2.32 2.1-2.32 1.16 0 2.06.98 2.06 2.32 0 1.4-.94 2.3-2.06 2.3zm11.094 2.58v-14.72h-3.12v14.72h3.12zm10.188-11c1.08 0 1.88-.78 1.88-1.8 0-.98-.8-1.76-1.88-1.76-1.08 0-1.86.8-1.86 1.76 0 1.02.78 1.8 1.86 1.8zm1.56 11v-9.78h-3.12v9.78h3.12zm6.095 0v-4.9c0-1.54.72-2.28 1.7-2.28 1.04 0 1.42.92 1.42 2.2v4.98h3.12v-4.9c0-1.54.74-2.28 1.64-2.28 1.08 0 1.42.92 1.42 2.2v4.98h3.12v-5.7c0-3.08-1.4-4.26-3.46-4.26-1.36 0-2.52.48-3.3 1.46h-.04c-.58-1.02-1.6-1.46-2.84-1.46-1.02 0-2 .46-2.76 1.34h-.02v-1.16h-3.12v9.78h3.12zm24.268 0v-7.84h.06l2.88 5.22h2.14l2.88-5.2h.04v7.82h3.32v-14.2h-3.38l-3.9 7.54h-.04l-3.94-7.54h-3.36v14.2h3.3zm19.215.18c3.08 0 5.28-2.06 5.28-5.06 0-3.02-2.2-5.08-5.28-5.08-3.16 0-5.3 2.1-5.3 5.08 0 2.96 2.14 5.06 5.3 5.06zm0-2.76c-1.24 0-2.14-1-2.14-2.3 0-1.34.88-2.3 2.14-2.3 1.22 0 2.12.94 2.12 2.3 0 1.34-.94 2.3-2.12 2.3zm10.794 2.58v-4.92c0-1.52.72-2.26 1.8-2.26 1.02 0 1.56.46 1.56 2.08v5.1h3.12v-5.86c0-3.1-1.48-4.1-3.5-4.1-1.14 0-2.18.44-2.94 1.32h-.04v-1.14h-3.12v9.78h3.12zm13.334.18c1.18 0 2.06-.4 2.7-1.22l.04.02v1.02h2.98v-9.78h-3.14v1.02l-.04.02c-.68-.8-1.66-1.22-2.7-1.22-2.52 0-4.46 2.08-4.46 5.08 0 3.02 1.94 5.06 4.62 5.06zm.66-2.76c-1.24 0-2.1-.92-2.1-2.3 0-1.4.9-2.32 2.1-2.32 1.16 0 2.06.98 2.06 2.32 0 1.4-.94 2.3-2.06 2.3zm11.054 2.76c1.36 0 2.06-.28 2.74-.66l-.78-2.3c-.34.16-.74.22-.96.22-.6 0-.74-.46-.74-1.1v-3.6h2.36v-2.52h-2.36v-3.46l-3.14.32v3.14h-1.1v2.52h1.1v4.18c0 2.22 1.2 3.26 2.88 3.26z"/>
  </g>
</svg>
