<svg xmlns="http://www.w3.org/2000/svg" viewBox="0 0 274 274">
  <defs>
    <filter id="a" width="152.5%" height="252.7%" x="-26.2%" y="-76.4%" filterUnits="objectBoundingBox">
      <feGaussianBlur in="SourceGraphic" stdDeviation="3.36"/>
    </filter>
    <filter id="c" width="152.5%" height="252.7%" x="-26.2%" y="-76.4%" filterUnits="objectBoundingBox">
      <feGaussianBlur in="SourceGraphic" stdDeviation="3.36"/>
    </filter>
    <filter id="d" width="152.5%" height="252.7%" x="-26.2%" y="-76.4%" filterUnits="objectBoundingBox">
      <feGaussianBlur in="SourceGraphic" stdDeviation="3.36"/>
    </filter>
    <linearGradient id="b" x1="30.469%" x2="69.531%" y1="0%" y2="100%">
      <stop offset="0%" stop-color="#EF378B"/>
      <stop offset="47.687%" stop-color="#E6294D"/>
      <stop offset="100%" stop-color="#EE6960"/>
    </linearGradient>
  </defs>
  <g fill="none" fill-rule="evenodd">
    <rect width="273.221" height="273.221" fill="#CCD9E7" rx="136.61"/>
    <path fill="#003F86" fill-rule="nonzero" d="M88.978 90V64.973h-4.7l-7.868 5.574 2.805 4.371 3.788-2.805V90h5.975zm13.964.328c5.173 0 9.254-2.696 9.254-7.25 0-3.388-1.895-5.646-4.408-6.593v-.11c1.602-.692 3.023-2.695 3.023-5.1 0-4.298-3.424-6.63-7.869-6.63-4.371 0-7.795 2.259-7.795 6.63 0 2.368 1.384 4.372 2.987 5.1v.11c-2.441.983-4.372 3.205-4.372 6.593 0 4.445 4.007 7.25 9.18 7.25zm0-16.102c-1.457 0-2.477-1.02-2.477-2.404 0-1.385 1.057-2.514 2.477-2.514 1.458 0 2.514 1.093 2.514 2.514 0 1.384-1.056 2.404-2.514 2.404zm0 11.22c-1.821 0-3.242-1.384-3.242-3.169 0-1.822 1.348-3.133 3.242-3.133 1.895 0 3.243 1.311 3.243 3.133 0 1.712-1.348 3.17-3.243 3.17zm16.333 4.882c1.785 0 3.279-1.42 3.279-3.206 0-1.785-1.494-3.242-3.279-3.242-1.822 0-3.279 1.457-3.279 3.242s1.457 3.206 3.279 3.206zm17.097 0c6.12 0 9.982-5.027 9.982-12.86 0-8.014-4.007-12.823-9.982-12.823-6.083 0-9.945 5.1-9.945 12.823 0 8.051 3.971 12.86 9.945 12.86zm0-5.537c-2.55 0-3.861-2.951-3.861-7.323 0-4.918 1.566-7.286 3.861-7.286 2.587 0 3.862 2.915 3.862 7.286 0 4.991-1.53 7.323-3.862 7.323zm23.91 5.537c6.12 0 9.982-5.027 9.982-12.86 0-8.014-4.007-12.823-9.982-12.823-6.083 0-9.945 5.1-9.945 12.823 0 8.051 3.97 12.86 9.945 12.86zm0-5.537c-2.55 0-3.861-2.951-3.861-7.323 0-4.918 1.566-7.286 3.861-7.286 2.587 0 3.862 2.915 3.862 7.286 0 4.991-1.53 7.323-3.862 7.323zm23.91 5.537c6.12 0 9.982-5.027 9.982-12.86 0-8.014-4.007-12.823-9.982-12.823-6.084 0-9.945 5.1-9.945 12.823 0 8.051 3.97 12.86 9.945 12.86zm0-5.537c-2.55 0-3.861-2.951-3.861-7.323 0-4.918 1.566-7.286 3.861-7.286 2.587 0 3.862 2.915 3.862 7.286 0 4.991-1.53 7.323-3.862 7.323zM96.431 47.481c2.623 0 4.809-1.49 4.809-4.47 0-2.286-1.968-2.962-3.855-4.074-1.332-.795-2.047-1.193-2.087-2.067-.02-.914.775-1.689 2.007-1.689.755 0 1.808.258 2.583 1.41l1.71-1.49a5.195 5.195 0 00-4.134-2.046c-2.543 0-4.61 1.57-4.61 4.093 0 1.916 1.49 2.835 2.968 3.688l.354.204.175.102c1.451.855 2.405 1.173 2.425 2.186 0 1.093-1.034 1.987-2.504 1.987a3.203 3.203 0 01-2.861-1.808l-1.73 1.59c.895 1.43 2.683 2.384 4.75 2.384zm9.843 0c.774 0 1.728-.238 2.444-.676l-.298-1.907c-.537.318-1.034.497-1.391.497-.477 0-.755-.318-.656-1.153l.596-4.769h2.365l.218-1.848h-2.364l.417-3.457-2.206.437-.397 3.02h-1.033l-.219 1.848h1.033l-.636 5.167c-.198 1.689.457 2.841 2.127 2.841zm7.716 0c1.013 0 2.186-.636 3.1-1.947l.06.02-.22 1.768h2.167l1.192-9.677h-2.166l-.1.755-.059.02c-.636-.656-1.55-.934-2.543-.934-2.901 0-4.77 3-4.77 6.06 0 2.167 1.034 3.935 3.339 3.935zm.417-1.927c-1.013 0-1.55-.775-1.55-1.968 0-1.967 1.014-4.113 2.723-4.113.755 0 1.629.338 2.205.894l-.04.358c-.377 2.98-1.987 4.829-3.338 4.829zm10.32 1.768l.437-3.616c.318-2.425 2.146-4.253 3.338-4.253.954 0 1.133.795.934 2.206l-.755 5.663h2.166l.795-5.842c.357-2.663-.338-3.994-2.405-3.994-1.291 0-2.464.596-3.477 1.828l-.04-.02.199-1.669h-2.166l-1.212 9.697h2.186zm12.823.159c1.113 0 2.265-.636 3.18-1.987l.059.02-.239 1.808h2.186l1.808-14.625h-2.185l-.696 5.703-.06.02c-.735-.695-1.689-.934-2.622-.934-2.902 0-4.77 3.02-4.77 6.06 0 2.167 1.034 3.935 3.339 3.935zm.417-1.927c-1.013 0-1.55-.775-1.55-1.968 0-1.947 1.014-4.113 2.722-4.113.855 0 1.73.258 2.286.855l-.06.437c-.397 2.94-1.987 4.789-3.398 4.789zm12.366 1.927c3.358 0 5.186-2.663 5.186-6 0-2.564-1.649-3.995-4.113-3.995-3.199 0-5.146 2.782-5.146 5.902 0 2.603 1.59 4.093 4.073 4.093zm.06-1.987c-1.232 0-1.947-1.013-1.947-2.365 0-1.828 1.112-3.656 2.821-3.656.835 0 2.047.398 2.047 2.206 0 2.106-1.173 3.815-2.921 3.815zm9.644 1.828l.437-3.636c.318-2.424 1.51-4.074 3.477-3.716l.298-2.484c-1.172.02-2.285.636-3.199 1.908h-.04l.219-1.769h-2.166l-1.212 9.697h2.186zm8.054.159c.775 0 1.729-.238 2.444-.676l-.298-1.907c-.537.318-1.033.497-1.391.497-.477 0-.755-.318-.656-1.153l.596-4.769h2.365l.219-1.848h-2.365l.417-3.457-2.205.437-.398 3.02h-1.033l-.219 1.848h1.034l-.636 5.167c-.199 1.689.457 2.841 2.126 2.841zm8.352-.02c1.848 0 2.881-.656 3.994-1.788l-1.709-1.232c-.695.715-1.311 1.033-2.205 1.033-.855 0-1.67-.517-1.828-1.61 3-.337 6.02-1.291 6.02-3.755 0-1.709-1.49-2.623-3.12-2.623-3.238 0-5.086 2.782-5.086 5.941 0 2.524 1.51 4.034 3.934 4.034zm-1.65-5.345c.418-1.868 1.69-2.663 2.703-2.663.656 0 1.014.278 1.014.755 0 1.173-1.808 1.69-3.716 1.908z"/>
    <g transform="translate(76 123)">
      <ellipse cx="23" cy="81.6" fill="#2F4F73" fill-opacity=".2" filter="url(#a)" rx="19.2" ry="6.6"/>
      <rect width="46" height="74" fill="#FFF" rx="3.024"/>
      <path fill="#FFF" fill-rule="nonzero" d="M26 74v11h-7V74z"/>
      <path fill="#F2F5F9" fill-rule="nonzero" d="M26 74v6l-7 2v-8z"/>
      <path fill="url(#b)" d="M0 0h40v64H0z" transform="translate(3 3)"/>
      <path fill="#FFF" d="M22.859 19.001L23 19l.22.003.265.01.2.012.217.017.233.023c.522.058 1.15.163 1.833.351a10.57 10.57 0 013.577 1.738c1.3.981 2.324 2.262 3.041 3.806.828 1.782 1.247 3.925 1.247 6.368 0 2.229-.548 4.63-1.63 7.135-.848 1.966-2.027 4.006-3.503 6.063l-.248.34-.182.247-.197.262-.32.417-.23.294-.243.306-.256.316-.268.326-.14.166-.287.34c-.098.114-.198.23-.3.346l-.311.353-.16.179-.33.361-.43.46-.373.388-.365.368-.347.34L23 51l-.719-.67-.174-.169-.318-.317-.272-.277-.315-.328-.43-.46-.303-.333-.333-.372-.236-.27-.246-.285-.255-.3-.398-.48-.274-.337a45.884 45.884 0 01-.139-.174l-.28-.357a44.042 44.042 0 01-.43-.56l-.288-.387-.29-.398c-1.476-2.057-2.655-4.097-3.503-6.063-1.082-2.506-1.63-4.906-1.63-7.135 0-2.443.42-4.586 1.247-6.368.717-1.544 1.74-2.825 3.041-3.806a10.57 10.57 0 013.577-1.738c.683-.188 1.31-.293 1.833-.35l.233-.024.217-.017.2-.012.182-.008.162-.004zm.203 2.034l-.194.001-.157.005-.178.008-.198.014-.106.01-.224.023c-.427.05-.936.137-1.49.29a8.71 8.71 0 00-2.95 1.426c-2.31 1.743-3.482 4.609-3.482 8.516 0 1.929.487 4.038 1.448 6.27.786 1.825 1.887 3.73 3.272 5.664.33.46.66.9.986 1.318l.277.351.273.34.269.327.263.315.257.301.25.288.24.274.345.382.32.349.294.313.423.438.243-.25.274-.288.304-.325.216-.237.227-.251.359-.405.25-.288.256-.301.263-.315c.045-.053.09-.107.134-.162l.271-.333.275-.346.14-.177.28-.363c.233-.308.47-.626.705-.955 1.385-1.934 2.486-3.84 3.272-5.665.96-2.231 1.448-4.34 1.448-6.269 0-3.907-1.172-6.773-3.482-8.516a8.71 8.71 0 00-2.95-1.426 9.89 9.89 0 00-.692-.165l-.26-.048-.246-.04a9.791 9.791 0 00-.344-.043l-.211-.021-.195-.015-.177-.01-.231-.008h-.067zm-6.216 7.485l1.842.566a5.11 5.11 0 00-.236 1.54c0 1.29.473 2.503 1.332 3.415.86.911 2.001 1.414 3.216 1.414 1.215 0 2.357-.503 3.216-1.414a4.874 4.874 0 001.165-2.113l.04-.16 1.841.567c-.079.327-.181.649-.306.963a6.878 6.878 0 01-1.385 2.181 6.434 6.434 0 01-2.055 1.47 6.103 6.103 0 01-2.516.54 6.103 6.103 0 01-2.516-.54 6.435 6.435 0 01-2.055-1.47 6.877 6.877 0 01-1.385-2.18 7.187 7.187 0 01-.508-2.673c0-.65.084-1.287.251-1.902l.06-.204zm10.327-3.022c.724 0 1.31.623 1.31 1.392 0 .768-.586 1.391-1.31 1.391-.724 0-1.31-.623-1.31-1.391 0-.769.586-1.392 1.31-1.392zM23 23.763v2.035l-.145.002a4.358 4.358 0 00-2.736 1.09l-.115.104-1.263-1.531a6.388 6.388 0 011.743-1.16 6.1 6.1 0 012.315-.537l.201-.003z"/>
    </g>
    <g transform="translate(150 123)">
      <ellipse cx="23" cy="81.6" fill="#2F4F73" fill-opacity=".2" filter="url(#c)" rx="19.2" ry="6.6"/>
      <rect width="46" height="74" fill="#FFF" rx="3.024"/>
      <path fill="#FFF" fill-rule="nonzero" d="M26 74v11h-7V74z"/>
      <path fill="#F2F5F9" fill-rule="nonzero" d="M26 74v6l-7 2v-8z"/>
      <path fill="url(#b)" d="M0 0h40v64H0z" transform="translate(3 3)"/>
      <path fill="#FFF" d="M22.859 19.001L23 19l.22.003.265.01.2.012.217.017.233.023c.522.058 1.15.163 1.833.351a10.57 10.57 0 013.577 1.738c1.3.981 2.324 2.262 3.041 3.806.828 1.782 1.247 3.925 1.247 6.368 0 2.229-.548 4.63-1.63 7.135-.848 1.966-2.027 4.006-3.503 6.063l-.248.34-.182.247-.197.262-.32.417-.23.294-.243.306-.256.316-.268.326-.14.166-.287.34c-.098.114-.198.23-.3.346l-.311.353-.16.179-.33.361-.43.46-.373.388-.365.368-.347.34L23 51l-.719-.67-.174-.169-.318-.317-.272-.277-.315-.328-.43-.46-.303-.333-.333-.372-.236-.27-.246-.285-.255-.3-.398-.48-.274-.337a45.884 45.884 0 01-.139-.174l-.28-.357a44.042 44.042 0 01-.43-.56l-.288-.387-.29-.398c-1.476-2.057-2.655-4.097-3.503-6.063-1.082-2.506-1.63-4.906-1.63-7.135 0-2.443.42-4.586 1.247-6.368.717-1.544 1.74-2.825 3.041-3.806a10.57 10.57 0 013.577-1.738c.683-.188 1.31-.293 1.833-.35l.233-.024.217-.017.2-.012.182-.008.162-.004zm.203 2.034l-.194.001-.157.005-.178.008-.198.014-.106.01-.224.023c-.427.05-.936.137-1.49.29a8.71 8.71 0 00-2.95 1.426c-2.31 1.743-3.482 4.609-3.482 8.516 0 1.929.487 4.038 1.448 6.27.786 1.825 1.887 3.73 3.272 5.664.33.46.66.9.986 1.318l.277.351.273.34.269.327.263.315.257.301.25.288.24.274.345.382.32.349.294.313.423.438.243-.25.274-.288.304-.325.216-.237.227-.251.359-.405.25-.288.256-.301.263-.315c.045-.053.09-.107.134-.162l.271-.333.275-.346.14-.177.28-.363c.233-.308.47-.626.705-.955 1.385-1.934 2.486-3.84 3.272-5.665.96-2.231 1.448-4.34 1.448-6.269 0-3.907-1.172-6.773-3.482-8.516a8.71 8.71 0 00-2.95-1.426 9.89 9.89 0 00-.692-.165l-.26-.048-.246-.04a9.791 9.791 0 00-.344-.043l-.211-.021-.195-.015-.177-.01-.231-.008h-.067zm-6.216 7.485l1.842.566a5.11 5.11 0 00-.236 1.54c0 1.29.473 2.503 1.332 3.415.86.911 2.001 1.414 3.216 1.414 1.215 0 2.357-.503 3.216-1.414a4.874 4.874 0 001.165-2.113l.04-.16 1.841.567c-.079.327-.181.649-.306.963a6.878 6.878 0 01-1.385 2.181 6.434 6.434 0 01-2.055 1.47 6.103 6.103 0 01-2.516.54 6.103 6.103 0 01-2.516-.54 6.435 6.435 0 01-2.055-1.47 6.877 6.877 0 01-1.385-2.18 7.187 7.187 0 01-.508-2.673c0-.65.084-1.287.251-1.902l.06-.204zm10.327-3.022c.724 0 1.31.623 1.31 1.392 0 .768-.586 1.391-1.31 1.391-.724 0-1.31-.623-1.31-1.391 0-.769.586-1.392 1.31-1.392zM23 23.763v2.035l-.145.002a4.358 4.358 0 00-2.736 1.09l-.115.104-1.263-1.531a6.388 6.388 0 011.743-1.16 6.1 6.1 0 012.315-.537l.201-.003z"/>
    </g>
    <g transform="translate(112 142)">
      <ellipse cx="23" cy="81.6" fill="#2F4F73" fill-opacity=".2" filter="url(#d)" rx="19.2" ry="6.6"/>
      <rect width="46" height="74" fill="#FFF" rx="3.024"/>
      <path fill="#FFF" fill-rule="nonzero" d="M26 74v11h-7V74z"/>
      <path fill="#F2F5F9" fill-rule="nonzero" d="M26 74v6l-7 2v-8z"/>
      <path fill="url(#b)" d="M0 0h40v64H0z" transform="translate(3 3)"/>
      <path fill="#FFF" d="M22.859 19.001L23 19l.22.003.265.01.2.012.217.017.233.023c.522.058 1.15.163 1.833.351a10.57 10.57 0 013.577 1.738c1.3.981 2.324 2.262 3.041 3.806.828 1.782 1.247 3.925 1.247 6.368 0 2.229-.548 4.63-1.63 7.135-.848 1.966-2.027 4.006-3.503 6.063l-.248.34-.182.247-.197.262-.32.417-.23.294-.243.306-.256.316-.268.326-.14.166-.287.34c-.098.114-.198.23-.3.346l-.311.353-.16.179-.33.361-.43.46-.373.388-.365.368-.347.34L23 51l-.719-.67-.174-.169-.318-.317-.272-.277-.315-.328-.43-.46-.303-.333-.333-.372-.236-.27-.246-.285-.255-.3-.398-.48-.274-.337a45.884 45.884 0 01-.139-.174l-.28-.357a44.042 44.042 0 01-.43-.56l-.288-.387-.29-.398c-1.476-2.057-2.655-4.097-3.503-6.063-1.082-2.506-1.63-4.906-1.63-7.135 0-2.443.42-4.586 1.247-6.368.717-1.544 1.74-2.825 3.041-3.806a10.57 10.57 0 013.577-1.738c.683-.188 1.31-.293 1.833-.35l.233-.024.217-.017.2-.012.182-.008.162-.004zm.203 2.034l-.194.001-.157.005-.178.008-.198.014-.106.01-.224.023c-.427.05-.936.137-1.49.29a8.71 8.71 0 00-2.95 1.426c-2.31 1.743-3.482 4.609-3.482 8.516 0 1.929.487 4.038 1.448 6.27.786 1.825 1.887 3.73 3.272 5.664.33.46.66.9.986 1.318l.277.351.273.34.269.327.263.315.257.301.25.288.24.274.345.382.32.349.294.313.423.438.243-.25.274-.288.304-.325.216-.237.227-.251.359-.405.25-.288.256-.301.263-.315c.045-.053.09-.107.134-.162l.271-.333.275-.346.14-.177.28-.363c.233-.308.47-.626.705-.955 1.385-1.934 2.486-3.84 3.272-5.665.96-2.231 1.448-4.34 1.448-6.269 0-3.907-1.172-6.773-3.482-8.516a8.71 8.71 0 00-2.95-1.426 9.89 9.89 0 00-.692-.165l-.26-.048-.246-.04a9.791 9.791 0 00-.344-.043l-.211-.021-.195-.015-.177-.01-.231-.008h-.067zm-6.216 7.485l1.842.566a5.11 5.11 0 00-.236 1.54c0 1.29.473 2.503 1.332 3.415.86.911 2.001 1.414 3.216 1.414 1.215 0 2.357-.503 3.216-1.414a4.874 4.874 0 001.165-2.113l.04-.16 1.841.567c-.079.327-.181.649-.306.963a6.878 6.878 0 01-1.385 2.181 6.434 6.434 0 01-2.055 1.47 6.103 6.103 0 01-2.516.54 6.103 6.103 0 01-2.516-.54 6.435 6.435 0 01-2.055-1.47 6.877 6.877 0 01-1.385-2.18 7.187 7.187 0 01-.508-2.673c0-.65.084-1.287.251-1.902l.06-.204zm10.327-3.022c.724 0 1.31.623 1.31 1.392 0 .768-.586 1.391-1.31 1.391-.724 0-1.31-.623-1.31-1.391 0-.769.586-1.392 1.31-1.392zM23 23.763v2.035l-.145.002a4.358 4.358 0 00-2.736 1.09l-.115.104-1.263-1.531a6.388 6.388 0 011.743-1.16 6.1 6.1 0 012.315-.537l.201-.003z"/>
    </g>
  </g>
</svg>
